<mxfile host="Electron" agent="Mozilla/5.0 (Windows NT 10.0; Win64; x64) AppleWebKit/537.36 (KHTML, like Gecko) draw.io/28.0.4 Chrome/138.0.7204.97 Electron/37.2.1 Safari/537.36" version="28.0.4">
  <diagram name="Page-1" id="h61dDB7GRY5GoGN7Z2Bx">
    <mxGraphModel dx="274" dy="621" grid="1" gridSize="10" guides="1" tooltips="1" connect="1" arrows="1" fold="1" page="1" pageScale="1" pageWidth="850" pageHeight="1100" math="0" shadow="0">
      <root>
        <mxCell id="0" />
        <mxCell id="1" parent="0" />
        <mxCell id="Nd245YbIvRQRNsEbv2v5-1" value="" style="rounded=0;whiteSpace=wrap;html=1;fillColor=none;dashed=1;strokeColor=#747474;" parent="1" vertex="1">
          <mxGeometry x="40" y="80" width="160" height="640" as="geometry" />
        </mxCell>
        <mxCell id="Nd245YbIvRQRNsEbv2v5-2" value="&lt;font style=&quot;color: rgb(0, 0, 0);&quot;&gt;So&lt;span style=&quot;background-color: transparent;&quot;&gt;urces&lt;/span&gt;&lt;/font&gt;" style="rounded=1;whiteSpace=wrap;html=1;fontSize=24;strokeColor=none;fillColor=#FFFFFF;" parent="1" vertex="1">
          <mxGeometry x="60" y="50" width="120" height="60" as="geometry" />
        </mxCell>
        <mxCell id="Nd245YbIvRQRNsEbv2v5-3" value="" style="rounded=0;whiteSpace=wrap;html=1;fillColor=none;dashed=1;strokeColor=#747474;" parent="1" vertex="1">
          <mxGeometry x="280" y="80" width="640" height="640" as="geometry" />
        </mxCell>
        <mxCell id="Nd245YbIvRQRNsEbv2v5-4" value="&lt;font style=&quot;color: rgb(0, 0, 0);&quot;&gt;Data Warehouse&lt;/font&gt;" style="rounded=1;whiteSpace=wrap;html=1;fontSize=24;strokeColor=none;fillColor=#FFFFFF;" parent="1" vertex="1">
          <mxGeometry x="500" y="50" width="200" height="60" as="geometry" />
        </mxCell>
        <mxCell id="Nd245YbIvRQRNsEbv2v5-6" value="" style="rounded=0;whiteSpace=wrap;html=1;fillColor=none;dashed=1;strokeColor=#747474;" parent="1" vertex="1">
          <mxGeometry x="1000" y="80" width="200" height="640" as="geometry" />
        </mxCell>
        <mxCell id="Nd245YbIvRQRNsEbv2v5-7" value="&lt;font style=&quot;color: rgb(0, 0, 0);&quot;&gt;Consumers&lt;/font&gt;" style="rounded=1;whiteSpace=wrap;html=1;fontSize=24;strokeColor=none;fillColor=#FFFFFF;" parent="1" vertex="1">
          <mxGeometry x="1020" y="50" width="160" height="60" as="geometry" />
        </mxCell>
        <mxCell id="Nd245YbIvRQRNsEbv2v5-8" value="&lt;span style=&quot;font-size: 20px;&quot;&gt;&lt;font style=&quot;color: rgb(0, 0, 0);&quot;&gt;Bronze Layer&lt;/font&gt;&lt;/span&gt;" style="rounded=1;whiteSpace=wrap;html=1;fillColor=#fad9d5;strokeColor=#ae4132;strokeWidth=2;" parent="1" vertex="1">
          <mxGeometry x="318" y="120" width="160" height="50" as="geometry" />
        </mxCell>
        <mxCell id="Nd245YbIvRQRNsEbv2v5-9" value="&lt;font style=&quot;font-size: 20px; color: rgb(0, 0, 0);&quot;&gt;Silver Layer&lt;/font&gt;" style="rounded=1;whiteSpace=wrap;html=1;fillColor=#bac8d3;strokeColor=#23445d;strokeWidth=2;" parent="1" vertex="1">
          <mxGeometry x="518" y="120" width="160" height="50" as="geometry" />
        </mxCell>
        <mxCell id="Nd245YbIvRQRNsEbv2v5-11" value="&lt;span style=&quot;font-size: 20px;&quot;&gt;&lt;font style=&quot;color: rgb(0, 0, 0);&quot;&gt;Gold Layer&lt;/font&gt;&lt;/span&gt;" style="rounded=1;whiteSpace=wrap;html=1;fillColor=#fad7ac;strokeColor=#b46504;strokeWidth=2;" parent="1" vertex="1">
          <mxGeometry x="718" y="120" width="160" height="50" as="geometry" />
        </mxCell>
        <mxCell id="Nd245YbIvRQRNsEbv2v5-54" value="" style="edgeStyle=orthogonalEdgeStyle;rounded=0;orthogonalLoop=1;jettySize=auto;html=1;" parent="1" source="Nd245YbIvRQRNsEbv2v5-12" target="Nd245YbIvRQRNsEbv2v5-8" edge="1">
          <mxGeometry relative="1" as="geometry" />
        </mxCell>
        <mxCell id="Nd245YbIvRQRNsEbv2v5-12" value="" style="rounded=1;whiteSpace=wrap;html=1;fillColor=none;strokeColor=#ae4132;strokeWidth=2;" parent="1" vertex="1">
          <mxGeometry x="318" y="180" width="160" height="500" as="geometry" />
        </mxCell>
        <mxCell id="Nd245YbIvRQRNsEbv2v5-13" value="" style="rounded=1;whiteSpace=wrap;html=1;fillColor=none;strokeColor=#23445d;strokeWidth=2;" parent="1" vertex="1">
          <mxGeometry x="518" y="180" width="160" height="500" as="geometry" />
        </mxCell>
        <mxCell id="Nd245YbIvRQRNsEbv2v5-14" value="" style="rounded=1;whiteSpace=wrap;html=1;fillColor=none;strokeColor=#b46504;strokeWidth=2;" parent="1" vertex="1">
          <mxGeometry x="718" y="180" width="160" height="500" as="geometry" />
        </mxCell>
        <mxCell id="Nd245YbIvRQRNsEbv2v5-18" value="" style="group" parent="1" vertex="1" connectable="0">
          <mxGeometry x="90.33" y="190" width="59.349999999999994" height="52.5" as="geometry" />
        </mxCell>
        <mxCell id="Nd245YbIvRQRNsEbv2v5-15" value="&lt;font style=&quot;color: rgb(255, 255, 255);&quot;&gt;CRM&lt;/font&gt;" style="sketch=0;pointerEvents=1;shadow=0;dashed=0;html=1;strokeColor=none;labelPosition=center;verticalLabelPosition=bottom;verticalAlign=top;outlineConnect=0;align=center;shape=mxgraph.office.concepts.folder;fillColor=#2072B8;" parent="Nd245YbIvRQRNsEbv2v5-18" vertex="1">
          <mxGeometry width="50" height="45" as="geometry" />
        </mxCell>
        <mxCell id="Nd245YbIvRQRNsEbv2v5-17" value="" style="image;aspect=fixed;html=1;points=[];align=center;fontSize=12;image=img/lib/azure2/general/File.svg;" parent="Nd245YbIvRQRNsEbv2v5-18" vertex="1">
          <mxGeometry x="35" y="22.5" width="24.35" height="30" as="geometry" />
        </mxCell>
        <mxCell id="Nd245YbIvRQRNsEbv2v5-19" value="" style="group" parent="1" vertex="1" connectable="0">
          <mxGeometry x="90.32" y="330" width="59.349999999999994" height="52.5" as="geometry" />
        </mxCell>
        <mxCell id="Nd245YbIvRQRNsEbv2v5-20" value="&lt;font style=&quot;color: rgb(255, 255, 255);&quot;&gt;ERP&lt;/font&gt;" style="sketch=0;pointerEvents=1;shadow=0;dashed=0;html=1;strokeColor=none;labelPosition=center;verticalLabelPosition=bottom;verticalAlign=top;outlineConnect=0;align=center;shape=mxgraph.office.concepts.folder;fillColor=#2072B8;" parent="Nd245YbIvRQRNsEbv2v5-19" vertex="1">
          <mxGeometry width="50" height="45" as="geometry" />
        </mxCell>
        <mxCell id="Nd245YbIvRQRNsEbv2v5-21" value="" style="image;aspect=fixed;html=1;points=[];align=center;fontSize=12;image=img/lib/azure2/general/File.svg;" parent="Nd245YbIvRQRNsEbv2v5-19" vertex="1">
          <mxGeometry x="35" y="22.5" width="24.35" height="30" as="geometry" />
        </mxCell>
        <mxCell id="Nd245YbIvRQRNsEbv2v5-22" value="" style="endArrow=none;html=1;rounded=0;strokeColor=#747474;" parent="1" edge="1">
          <mxGeometry width="50" height="50" relative="1" as="geometry">
            <mxPoint x="60" y="440" as="sourcePoint" />
            <mxPoint x="180" y="440" as="targetPoint" />
          </mxGeometry>
        </mxCell>
        <mxCell id="Nd245YbIvRQRNsEbv2v5-23" value="&lt;b&gt;Object Type: &lt;/b&gt;CSV File&lt;div&gt;&lt;br&gt;&lt;b&gt;Interface: &lt;/b&gt;Files in Folder&lt;/div&gt;" style="text;html=1;align=center;verticalAlign=middle;whiteSpace=wrap;rounded=0;" parent="1" vertex="1">
          <mxGeometry x="50" y="450" width="140" height="50" as="geometry" />
        </mxCell>
        <mxCell id="Nd245YbIvRQRNsEbv2v5-24" value="&lt;span&gt;&lt;font style=&quot;color: rgb(0, 0, 0);&quot;&gt;&amp;nbsp;Raw Data&amp;nbsp;&lt;/font&gt;&lt;/span&gt;" style="html=1;verticalLabelPosition=bottom;align=center;labelBackgroundColor=#ffffff;verticalAlign=top;strokeWidth=2;strokeColor=#ae4132;shadow=0;dashed=0;shape=mxgraph.ios7.icons.data;fillColor=#fad9d5;" parent="1" vertex="1">
          <mxGeometry x="373" y="270" width="50" height="70" as="geometry" />
        </mxCell>
        <mxCell id="Nd245YbIvRQRNsEbv2v5-25" value="&lt;font style=&quot;color: rgb(0, 0, 0);&quot;&gt;&amp;nbsp;Clean Standardized Data&amp;nbsp;&lt;/font&gt;" style="html=1;verticalLabelPosition=bottom;align=center;labelBackgroundColor=#ffffff;verticalAlign=top;strokeWidth=2;strokeColor=#23445d;shadow=0;dashed=0;shape=mxgraph.ios7.icons.data;fillColor=#bac8d3;" parent="1" vertex="1">
          <mxGeometry x="573" y="270" width="50" height="70" as="geometry" />
        </mxCell>
        <mxCell id="Nd245YbIvRQRNsEbv2v5-26" value="&lt;span&gt;&lt;font style=&quot;color: light-dark(rgb(255, 255, 255), rgb(0, 0, 0));&quot;&gt;&amp;nbsp;Business Ready Data&amp;nbsp;&lt;/font&gt;&lt;/span&gt;" style="html=1;verticalLabelPosition=bottom;align=center;labelBackgroundColor=#ffffff;verticalAlign=top;strokeWidth=2;strokeColor=#b46504;shadow=0;dashed=0;shape=mxgraph.ios7.icons.data;fillColor=#fad7ac;" parent="1" vertex="1">
          <mxGeometry x="773" y="270" width="50" height="70" as="geometry" />
        </mxCell>
        <mxCell id="Nd245YbIvRQRNsEbv2v5-33" value="" style="shape=flexArrow;endArrow=classic;html=1;rounded=0;entryX=0.138;entryY=0.389;entryDx=0;entryDy=0;entryPerimeter=0;fillColor=#b1ddf0;strokeColor=#10739e;endWidth=22.5;endSize=9.274999999999999;width=15;" parent="1" edge="1">
          <mxGeometry width="50" height="50" relative="1" as="geometry">
            <mxPoint x="190" y="310" as="sourcePoint" />
            <mxPoint x="340.0799999999999" y="310.03999999999996" as="targetPoint" />
          </mxGeometry>
        </mxCell>
        <mxCell id="Nd245YbIvRQRNsEbv2v5-41" value="" style="shape=flexArrow;endArrow=classic;html=1;rounded=0;entryX=0.138;entryY=0.389;entryDx=0;entryDy=0;entryPerimeter=0;fillColor=#b1ddf0;strokeColor=#10739e;endWidth=22.5;endSize=9.274999999999999;width=15;" parent="1" edge="1">
          <mxGeometry width="50" height="50" relative="1" as="geometry">
            <mxPoint x="470" y="310" as="sourcePoint" />
            <mxPoint x="542.0799999999999" y="310.03999999999996" as="targetPoint" />
          </mxGeometry>
        </mxCell>
        <mxCell id="Nd245YbIvRQRNsEbv2v5-42" value="" style="shape=flexArrow;endArrow=classic;html=1;rounded=0;entryX=0.138;entryY=0.389;entryDx=0;entryDy=0;entryPerimeter=0;fillColor=#b1ddf0;strokeColor=#10739e;endWidth=22.5;endSize=9.274999999999999;width=15;" parent="1" edge="1">
          <mxGeometry width="50" height="50" relative="1" as="geometry">
            <mxPoint x="668" y="310" as="sourcePoint" />
            <mxPoint x="740.0799999999999" y="310.03999999999996" as="targetPoint" />
          </mxGeometry>
        </mxCell>
        <mxCell id="Nd245YbIvRQRNsEbv2v5-44" value="" style="shape=flexArrow;endArrow=classic;html=1;rounded=0;entryX=0.138;entryY=0.389;entryDx=0;entryDy=0;entryPerimeter=0;fillColor=#b1ddf0;strokeColor=#10739e;endWidth=22.5;endSize=9.274999999999999;width=15;" parent="1" edge="1">
          <mxGeometry width="50" height="50" relative="1" as="geometry">
            <mxPoint x="870" y="300" as="sourcePoint" />
            <mxPoint x="1023.0799999999999" y="301.03999999999996" as="targetPoint" />
          </mxGeometry>
        </mxCell>
        <mxCell id="Nd245YbIvRQRNsEbv2v5-48" value="" style="endArrow=none;html=1;rounded=0;strokeColor=#ae4132;fillColor=#fad9d5;" parent="1" edge="1">
          <mxGeometry width="50" height="50" relative="1" as="geometry">
            <mxPoint x="338" y="380" as="sourcePoint" />
            <mxPoint x="458" y="380" as="targetPoint" />
          </mxGeometry>
        </mxCell>
        <mxCell id="Nd245YbIvRQRNsEbv2v5-49" value="&lt;b&gt;Object Type: &lt;/b&gt;Tables&lt;div&gt;&lt;br&gt;&lt;b&gt;Load:&lt;/b&gt;&lt;/div&gt;&lt;div&gt;&lt;ul&gt;&lt;li&gt;Batch Processing&lt;/li&gt;&lt;li&gt;Full Load&lt;/li&gt;&lt;li&gt;Truncate &amp;amp; Insert&lt;/li&gt;&lt;/ul&gt;&lt;div&gt;No &lt;b&gt;Transformations&lt;/b&gt;&lt;/div&gt;&lt;/div&gt;&lt;div&gt;&lt;b&gt;&lt;br&gt;&lt;/b&gt;&lt;/div&gt;&lt;div&gt;&lt;b&gt;Data Model: &lt;/b&gt;None (as-is)&lt;/div&gt;" style="text;html=1;align=left;verticalAlign=middle;whiteSpace=wrap;rounded=0;" parent="1" vertex="1">
          <mxGeometry x="328" y="390" width="140" height="160" as="geometry" />
        </mxCell>
        <mxCell id="Nd245YbIvRQRNsEbv2v5-50" value="" style="endArrow=none;html=1;rounded=0;strokeColor=#23445d;fillColor=#bac8d3;" parent="1" edge="1">
          <mxGeometry width="50" height="50" relative="1" as="geometry">
            <mxPoint x="540" y="380" as="sourcePoint" />
            <mxPoint x="660" y="380" as="targetPoint" />
          </mxGeometry>
        </mxCell>
        <mxCell id="Nd245YbIvRQRNsEbv2v5-51" value="&lt;b&gt;Object Type: &lt;/b&gt;Tables&lt;div&gt;&lt;br&gt;&lt;b&gt;Load:&amp;nbsp;&lt;/b&gt;&lt;/div&gt;&lt;div&gt;&lt;ul&gt;&lt;li&gt;Batch Processing&lt;/li&gt;&lt;li&gt;Full Load&lt;/li&gt;&lt;li&gt;Truncate &amp;amp; Insert&lt;/li&gt;&lt;/ul&gt;&lt;div&gt;&lt;b&gt;Transformations:&lt;/b&gt;&lt;/div&gt;&lt;/div&gt;&lt;div&gt;&lt;ul&gt;&lt;li&gt;Data Cleaning&lt;/li&gt;&lt;li&gt;Data Standardization&lt;/li&gt;&lt;li&gt;Data Normalization&lt;/li&gt;&lt;li&gt;Derived Columns&lt;/li&gt;&lt;li&gt;Data Enrichment&lt;/li&gt;&lt;/ul&gt;&lt;div&gt;&lt;b&gt;Data Model: &lt;/b&gt;None (as-is)&lt;/div&gt;&lt;/div&gt;" style="text;html=1;align=left;verticalAlign=middle;whiteSpace=wrap;rounded=0;" parent="1" vertex="1">
          <mxGeometry x="530" y="390" width="140" height="260" as="geometry" />
        </mxCell>
        <mxCell id="Nd245YbIvRQRNsEbv2v5-52" value="" style="endArrow=none;html=1;rounded=0;strokeColor=#b46504;fillColor=#fad7ac;" parent="1" edge="1">
          <mxGeometry width="50" height="50" relative="1" as="geometry">
            <mxPoint x="738" y="380" as="sourcePoint" />
            <mxPoint x="858" y="380" as="targetPoint" />
          </mxGeometry>
        </mxCell>
        <mxCell id="Nd245YbIvRQRNsEbv2v5-53" value="&lt;b&gt;Object Type: &lt;/b&gt;Views&lt;div&gt;&lt;br&gt;&lt;/div&gt;&lt;div&gt;No &lt;b&gt;Load&lt;/b&gt;&lt;/div&gt;&lt;div&gt;&lt;b&gt;&lt;br&gt;&lt;/b&gt;&lt;/div&gt;&lt;div&gt;&lt;b&gt;Transformations:&lt;/b&gt;&lt;/div&gt;&lt;div&gt;&lt;ul&gt;&lt;li&gt;Data Integrations&lt;/li&gt;&lt;li&gt;Aggregations&lt;/li&gt;&lt;li&gt;Business Logics&lt;/li&gt;&lt;/ul&gt;&lt;div&gt;&lt;b&gt;Data Model:&lt;/b&gt;&lt;/div&gt;&lt;/div&gt;&lt;div&gt;&lt;ul&gt;&lt;li&gt;Star Schema&lt;/li&gt;&lt;li&gt;Flat Table&lt;/li&gt;&lt;li&gt;Aggregated Tables&lt;/li&gt;&lt;/ul&gt;&lt;/div&gt;" style="text;html=1;align=left;verticalAlign=middle;whiteSpace=wrap;rounded=0;" parent="1" vertex="1">
          <mxGeometry x="728" y="390" width="140" height="230" as="geometry" />
        </mxCell>
        <mxCell id="Nd245YbIvRQRNsEbv2v5-68" value="" style="group" parent="1" vertex="1" connectable="0">
          <mxGeometry x="1055" y="202.5" width="90" height="50" as="geometry" />
        </mxCell>
        <mxCell id="Nd245YbIvRQRNsEbv2v5-55" value="" style="image;aspect=fixed;html=1;points=[];align=center;fontSize=12;image=img/lib/azure2/power_platform/PowerBI.svg;" parent="Nd245YbIvRQRNsEbv2v5-68" vertex="1">
          <mxGeometry width="37.5" height="50" as="geometry" />
        </mxCell>
        <mxCell id="Nd245YbIvRQRNsEbv2v5-63" value="" style="shape=image;aspect=fixed;image=data:image/png,iVBORw0KGgoAAAANSUhEUgAAAgAAAAIACAYAAAD0eNT6AAAACXBIWXMAAAsTAAALEwEAmpwYAAAUyklEQVR4nO3dP45c55XG4ZsamNlB52Ig5r0DawOMWsY4cCCAViKMmkw8Tg0boMiUaA/H47AWwQYMiAshBtIuetCGgI6qedx/+FW97/MAJyVwb9+651efYNe2AQAAAAAAAAAAAAAAAAAAAAAAAAAA/4LzN29PXr6+eHbXOX/z9tQNB4Aj88siv7rrvHh9sVt9DQDAv0gAAEAhAQAAhQQAABQSAABQSAAAQCEBAACFBAAAFBIAAFBIAABAIQEAAIUEAAAUEgAAUEgAAEAhAQAAhQQAABQSAABQSAAAQCEBAACFBAAAFBIAAFBIAABAIQEAAIUEAAAUEgAAUEgAAEAhAQAAhQQAABQSAABQSAAAQCEBAACFBAAAFBIAAFBIAABAIQEAAIUEAAAUEgAAUEgAAEAhAQAAj+D8zduTX5bsYc4PF69evr64uuu8eH3xYfk13DLnb96eerABOLpv2OZ+9+DF64udxx6Az04ArI0YAQDAEgJAAABQSAAIAAAKCQABAEAhASAAACgkAAQAAIUEgAAAoJAAEAAAFBIAAgCAQgJAAABQSAAIAAAKCQABAHDwrt5tu6v/2a4edN5t1T/GIgAEwEq//a8/P/vtH/5y9dCz9KKAhycAHp4AEAArCQBgRAA8vOvfo7/+RboDng/3+7W9v348gGvYOy9/uPiu+eMvAIARAdDnvicUfm73sAkAYEQA9BEA2QQAMCIA+giAbAIAGBEAfQRANgEAjAiAPgIgmwAARgRAHwGQTQAAIwKgjwDIJgCAEQHQRwBkEwDAiADoIwCyCQBgRAD0EQDZBAAwIgD6CIBsAgAYEQB9BEA2AQCMCIA+AiCbAABGBEAfAZBNAAAjAqCPAMgmAIARAdBHAGQTAMCIAOgjALIJAGBEAPQRANkEADAiAPoIgGwCABgRAH0EQDYBAIwIgD4CIJsAAEYEQB8BkE0AACMCoI8AyCYAgBEB0EcAZBMAwIgA6CMAsgkAYEQA9BEA2QQAMCIA+giAbAIAGBEAfQRANgEAjAiAPgIgmwAARgRAHwGQTQAAIwKgjwDIJgCAEQHQRwBkEwDAiADoIwCyCQBgRAD0EQDZBAAwIgD6CIBsAgAYEQB9BEA2AQCMCIA+AiCbAABGBEAfAZBNAAAjAqCPAMgmAIARAdDn/M3b0xevL3Z3nZc/XHy3+hrYTwAAIwIAsggAYEQAQBYBAIwIAMgiAIARAQBZBAAwIgAgiwAARgQAZBEAwIgAgCwCABgRAJBFAAAjAgCyCABgRABAFgEAjAgAyCIAgBEBAFkEADAiACCLAABGBABkEQDAiACALAIAGBEAkEUAACMCALIIAGBEAEAWAQCMCADIIgCAEQEAWQQAMCIAIIsAgJUL0HTfg3fbzgcwbwGa7nuwkUcAHMDCTBsBsJQAWL8sE2cjjwA4gIWZNgJgKQGwflkmzkYeAXAACzNtBMBSAmD9skycjTwC4AAWZtoIgKUEwPplmTgbeQTAASzMtBEASwmA9csycTbyCIADWJhpIwCWEgDrl2XibOQRAAewMNNGACwlANYvy8TZyCMADmBhpo0AWEoArF+WibORRwAcwMJMGwGwlABYvywTZyOPADiAhZk2AmApAbB+WSbORh4BcAALM20EwFICYP2yTJyNPALgABZm2giApQTA+mWZOBt5BMABLMy0EQBLCYD1yzJxNvIIgANYmGkjAJYSAOuXZeJs5BEAB7Aw00YALCUA1i/LxFn7VPMoBMABLMy0EQBLCYD1yzJxNvIIgANYmGkjAJYSAOuXZeJs5BEAB7Aw00YALCUA1i/LxNnIIwAOYGGmjQBYSgCsX5aJs5FHABzAwkwbAbCUAFi/LBNnI8/Vu+306t32rHb+e/vw4Avw+t9cfV1r53T1c93sd3/808k/I6B0/uMPf371KEvwAK5t5WyQ5lFOQHwDhrgTEH9SCCMAIIsAAEYEAGQRAMCIAIAsAgAYEQCQRQAAIwIAsggAYEQAQBYBAIwIAMgiAIARAQBZBAAwIgAgiwAARgRAnp++f/rs5/OnV8vm+y93q+9BMwEAjAiAPAKgmwAARgRAHgHQTQAAIwIgjwDoJgCAEQGQRwB0EwDAiADIIwC6CQBgRADkEQDdBAAwIgDyCIBuAgAYEQB5BEA3AQCMCIA8AqCbAABGBEAeAdBNAAAjAiCPAOgmAIARAZBHAHQTAMCIAMgjALoJAGBEAOQRAN0EADAiAPIIgG4CABgRAHkEQDcBAIwIgDwCoJsAAEYEQB4B0E0AACMCII8A6CYAgBEBkEcAdBMAwIgAyCMAugkAYEQA5BEA3QQAMCIA8giAbgIAGBEAeQRANwEAjAiAPAKgmwAARgRAHgHQTQAAIwIgjwDoJgCAEQGQRwB0EwDAiADIIwC6CQBgRADkEQDdBAAwIgDyCIBuAgAYEQB5BEA3AQCMCIA8AqCbAABGBEAeAdBNAAAjAiCPAOgmAIARAZBHAHQTAMCIAMgjALoJAGBEAOQRAN0EADAiAPIIgG4CABgRAHkEQDcBAIwIgDwCoJsAgFucv3l78vL1xbO7zvmbt6cpN1gA5BEA3QTA7c6+fX/ym99fPrvrnH3zPub9X+mXRX5113nx+mK3hRAAeQRANwFwu+sl/vXzy6t7zO4z/Sl5DALghgDIIwC6CYDbCYByAuCGAMgjALoJgNsJgHIC4IYAyCMAugmA2wmAcgLghgDIIwC6CYDbCYByAuCGAMgjALoJgNsJgHIC4IYAyCMAugmA2wmAcgLghgDIIwC6CYDbCYByAuCGAMgjALoJgNsJgHIC4IYAyCMAugmA2wmAcgLgxtW77fTq3fbsgcf/VeZCAqDb7/74p5N/RsADzxZCAJQTACQTALCfACgnAEgmAGA/AVBOAJBMAMB+AqCcACCZAID9BEA5AUAyAQD7CYByAoBkAgD2EwDlBADJBADsJwDKCQCSCQDYTwCUEwAkEwCwnwAoJwBIJgBgPwFQTgCQTADAfgKgnAAgmQCA/QRAOQFAMgEA+wmAcgKAZAIA9hMA5QQAyQQA7CcAygkAkgkA2E8AlBMAJBMAsJ8AKCcASCYAYD8BUE4AkEwAwH4CoJwAIJkAgP0EQDkBcLyLzXz6Hvzff3756ufzp1er5qfvv/zg7zR7Vj+ePz1Z/blqIwDKCYDjtHKpGffgcWLp6bPVn6s2AqCcADhOlrAlnPYMCIDPTwCUEwDHafXL2rgHAuD4CYByAuA4WcAWcNoz4ATg8xMA5QTAcVr9sjbugQA4fgKgnAA4ThawBZz2DDgB+PwEQDkBcJxWv6yNeyAAjp8AeGTnb96e/LJkD3N+uHj18vXF1V3nxeuLD8uv4ZY5f/P2dAtkAVvAac9A4gnA2bfvT66X7MHO88tXXz+/vLrHfFh+DbfM2TfvT4/6G7a53z148fpitwVa/bI27oEA+CzfsM3ze92Dte9/AbA2YgSARSVWjuMZSDwBEACXqwNGADSfIgiA9S924x4IgOWLsHV2SwvQCYAAeAyWqqWa9gw4AVi+LBNnt60kAATAY1j9sjbugQD4NP8J4FIArD4Gbx7/CcCiEivH8Qw4AVi+LBNnt63kBEAAPIbVL2vjHgiAT3MCcCkAVn8Lbh4nABaVWDmOZ8AJwPJlmTi7bSUnAALgMax+WRv3QAB8mhOASwGw+ltw8zgBsKjEynE8A04Ali/LxNltKzkBEACPYfXL2rgHAuDTnABcCoDV34KbxwmARSVWjuMZcAKwfFkmzm5byQmAAHgMq1/Wxj0QAJ/mBOBSAKz+Ftw8TgAsKrFyHM+AE4DlyzJxdttKTgAEwGNY/bI27oEA+DQnAJfdAXD9e/TX30IPeD7c7xv2Xz8ewDXsnZc/XHy3BbKALeC0ZyDxBOD69+ivl9ABz4d7LtiPB3ANe+fs+WXk+/9gTihSj9gP3eqXtXEPBMDxe4ATit3qa+AeBMBxsoAt4LRnIPEE4NAJgHIC4Ditflkb90AAHD8BUE4AHCcL2AJOewacAHx+AqCcADhOq1/Wxj0QAMdPAJQTAMfJAraA054BJwCfnwAoJwCO0+qXtXEPBMDxEwDlBMBx+vn7L3fm0/fgp++//LA0Vr7/8qO/0/BZPX96uvpz1UYAlBMAJLs+Vl4cAP530hwsAVBOAJBMAMB+AqCcACCZAID9BEA5AUAyAQD7CYByAoBkAgD2EwDlBADJBADsJwDKCQCSCQDYTwCUEwAkEwCwnwAoJwBIJgBgPwFQTgCQTADAfgKgnAAgmQCA/QRAOQFAMgEA+wmAcgKAZAIA9hMA5QQAyQQA7CcAygkAkgkA2E8AlBMAJBMAsJ8AKCcASCYAYD8BUE4AkEwAwH4CoJwAIJkAgP0EQDkBQDIBAPsJgHICgGQCAPYTAOUEwI0fnzzZ/fjkydUDz27hn7eeAOj2b1/977N///Xfrh56thACoJwAuCEA8giAbgLgdgKgnAC4IQDyCIBuAuB2AqCcALghAPIIgG4C4HYCoJwAuCEA8giAbgLgdgKgnAC4IQDyCIBuAuB2AqCcALghAPIIgG4C4HYCoJwAuCEA8giAbgLgdgKgnAC4IQDyCIBuAuB2AqCcALghAPIIgG4C4HYCoNz5m7enL15f7O46L3+4+G4LIQDyCIBuAuB2Z9+8P/36+eXurnP2/DLm/U85AZBHAHQTAMCIAMgjALoJAGBEAOQRAN0EADAiAPIIgG4CABgRAHkEQDcBAIwIgDwCoJsAAEYEQB4B0E0AACMCII8A6CYAgBEBkEcAdBMAwIgAyCMAugkAYEQA5BEA3QQAMCIA8giAbgIAGBEAeQRANwEAjAiAPAKgmwAARgRAHgHQTQAAIwIgjwDoJgCAEQGQRwB0EwDAiADIIwC6CQBgRADkEQDdBAAwIgDyCIBuAgAYEQB5BEA3AQCMCIA8AqCbAABGBEAeAdBNAAAjAiCPAOgmAIARAZBHAHQTAMCIAMgjALoJAGBEAOQRAN0EADAiAPIIgG4CABgRAHkEQDcBAIwIgDwCoJsAAEYEQB4B0E0AACMCII8A6CYAgBEBkEcAdBMAwIgAyCMAugkAYEQA5BEA3QQAMCIA8giAbgIAGBEAeQRANwEAjAiAPAKgmwAARgRAHgHQTQAAIwIgjwDoJgCAEQGQRwB0EwDAiADIIwC6CQBgRADk+Xj+9OQ6AlbNz+dPT1ffg2YCABgRAJBFAAAjAgCyCABgRABAFgEAjAgAyCIAgBEBAFkEADAiACCLAABGBABkEQDAiACALAIAGBEAkEUAACMCALIIAFi7AE33Pdj5AOYtQNN9DzbyCIDlyzJxBMBCAmD9skycjTwCYPmyTBwBsJAAWL8sE2cjjwBYviwTRwAsJADWL8vE2cgjAJYvy8QRAAsJgPXLMnE28giA5csycQTAQgJg/bJMnI08AmD5skwcAbCQAFi/LBNnI48AWL4sE0cALCQA1i/LxNnIIwCWL8vEEQALCYD1yzJxNvIIgOXLMnEEwEICYP2yTJyNPAJg+bJMHAGwkABYvywTZyOPAFi+LBNHACwkANYvy8TZyCMAli/LxBEACwmA9csycTbyCIDlyzJxBMBCAmD9skycjTwCYPmyTBwBsJAAWL8sE2cjjwBYviwTRwAsJADWL8vE2cgjAJYvy8QRAAsJgPXLMnE28giA5csycQTAQgJg/bJMnI08AmD5skwcAbCQAFi/LBNnI48AWL4sE0cALCQA1i/LxNnIIwCWL8vEEQALCYD1yzJxNvL848mT0x+/+OJZ8Xx48AV4/W+uv65lc/1MrX6um/3qq7+fXEdA7fz6b68eYwEuv67Fs0GaRzoB8Q0Ywk5A/EEhjACALAIAGBEAkEUAACMCALIIAGBEAEAWAQCMCADIIgCAEQEAWQQAMCIAIIsAAEYEAGQRAMCIAIAsAgAYEQCQRQAAIwIAsggAYEQAQBYBAIwIAMgiAIARAQBZBAAwIgAgiwAARgQAZBEAwIgAgCwCABgRAJBFAAAjAgCyCABgRAD0Ofv2/clvfn/57K5z9s3709XXwH4CABgRAH2ul/jXzy+v7jG71dfAfgIAGBEAfQRANgEAjAiAPgIgmwAARgRAHwGQTQAAIwKgjwDIJgCAEQHQRwBkEwDAiADoIwCyCQBgRAD0EQDZBAAwIgD6CIBsAgAYEQB9BEA2AQCMCIA+AiCbAABGBEAfAZBNAAAjAqCPAMgmAIARAdBHAGQTAMCIAOgjALIJAGBEAPQRANkEADAiAPoIgGwCABgRAH0EQDYBAIwIgD4CIJsAAEYEQB8BkE0AACMCoI8AyCYAgBEB0EcAZBMAwIgA6CMAsgkAYEQA9BEA2QQAMCIA+giAbAIAGBEAfQRANgEAjAiAPgIgmwAARgRAHwGQTQAAIwKgjwDIJgCAEQHQRwBkEwDAiADoIwCyCQBgRAD0EQDZBAAwIgD6CIBsAgAYEQB9BEA2AQCMCIA+AiCbAABGBEAfAZBNAAAjAqCPAMgmAIARAdBHAGQTAMCIAOgjALIJAGBEADy8s2/fn1wv2YOd55evvn5+eXWP+bD8Gm6Zs2/enzZ//AUAMCIADvIbtrnfPdg1f/wFADAiAB6eAFgeMALg13+7eujxSoUw/3jy5PTHL7549pBz/W9uxQSAAFjpV1/9/eT6FOChZ+lFARwDASAAACgkAAQAAIUEgAAAoJAAEAAAFBIAAgCAQgJAAABQSAAIAAAKCQABAEAhASAAACgkAAQAAIUEgAAAoJAAEAAAFLr+PfrrX6Q74Plwz1/b+3gA17B3zp5ffrf6GQCAxBOK6p/bBYCjJAAAoJAAAIBCAgAACgkAACgkAACgkAAAgEICAAAKCQAAKCQAAKCQAACAQgIAAAoJAAAoJAAAoJAAAIBCAgAACgkAACgkAACgkAAAgEICAAAKCQAAKCQAAKCQAACAQgIAAAoJAAAoJAAAoJAAAIBCAgAACgkAACgkAACgkAAAgEICAAAKCQAAKCQAAKCQAACAQgIAAAoJAAAoJAAAoJAAAIBCZ9+8P/36+eXurnP2/PK71dcAAAAAAAAAAAAAAAAAAAAAAAAAAAAAAAAAAAAAAAAAAAAAAAAAAAAAAAAA2138P7GIoC/cjzSLAAAAAElFTkSuQmCC;" parent="Nd245YbIvRQRNsEbv2v5-68" vertex="1">
          <mxGeometry x="40" width="50" height="50" as="geometry" />
        </mxCell>
        <mxCell id="Nd245YbIvRQRNsEbv2v5-69" value="BI &amp;amp; Reporting" style="text;html=1;align=center;verticalAlign=middle;whiteSpace=wrap;rounded=0;" parent="1" vertex="1">
          <mxGeometry x="1050" y="260" width="100" height="30" as="geometry" />
        </mxCell>
        <mxCell id="Nd245YbIvRQRNsEbv2v5-74" value="Ad-Hoc SQL Queries" style="text;html=1;align=center;verticalAlign=middle;whiteSpace=wrap;rounded=0;" parent="1" vertex="1">
          <mxGeometry x="1040" y="420" width="120" height="30" as="geometry" />
        </mxCell>
        <mxCell id="Nd245YbIvRQRNsEbv2v5-75" value="" style="group" parent="1" vertex="1" connectable="0">
          <mxGeometry x="1050" y="530" width="100" height="85" as="geometry" />
        </mxCell>
        <mxCell id="Nd245YbIvRQRNsEbv2v5-71" value="Machine Learning" style="text;html=1;align=center;verticalAlign=middle;whiteSpace=wrap;rounded=0;" parent="Nd245YbIvRQRNsEbv2v5-75" vertex="1">
          <mxGeometry y="55" width="100" height="30" as="geometry" />
        </mxCell>
        <mxCell id="Nd245YbIvRQRNsEbv2v5-77" value="" style="shape=image;aspect=fixed;image=data:image/png,iVBORw0KGgoAAAANSUhEUgAAAgAAAAIACAYAAAD0eNT6AAAACXBIWXMAAA7DAAAOwwHHb6hkAAAAGXRFWHRTb2Z0d2FyZQB3d3cuaW5rc2NhcGUub3Jnm+48GgAAIABJREFUeJzs3Xe4VNW5P/Dvu/e0U+iIXREsKJEmAmoSSzSJBezYwNR7/SW5atQkRhNvRlSKJjGa6E1yY0wULGCLNVXNjQUQRUSwgbEbRemnzMze6/39MWBQTp89s9ae+X6eh+fhwNl7f+HMOeudVQVENU6/e/EoUzBHS6hjYHR3qNkexjSo0bQAAjUeFICIQkThSajwCuIhp57/rgheVg9Pe17qH7ja/4cga2z/m4iIOiO2AxBVml7wg8+aIPyKBOHBCIOdEZhEZDf3PINk4h31E495CdwsP53xYGT3JiKKEAsAqgl6/oUHoiCXmELhYAmCuoo92PcDk0o85acTV8iPpz9QsecSEXWCBQBVLc1mE2Z9/r8lV/gmcvkBtvMglWiSRPJBNHpny/Tp79mOQ0S1jQUAVR299to0VrzzC5PLnylhmLKdZyuep0inHpeEfEmunvmq7TjUNfriV3shlx8FMdsBXgGBWSxjbnnddi6inmIBQFVD5871zfKV/wFgGsJwG6zfCGluBVRtR2ubJ2rSqQV+796T5Yofvmk7DrVNl525C4LgMkBOBvDJ4aOlEJ0lI26ZYyMbUSlYAFBVKGRnHOYBVwMY8fG/CIB16yGteTvBukA9zyCT/rV37YxvCsTRaqU26ZIpkwC9BUBDJ596F5ryU+TAeS2VyEUUBRYAFGs6ffoAk8f1gExu/5MU0tIKrNsAhA6v0Esl10gmOYUrB9ygS6YeBpg/AejqKpF7MWLOcSJgEUexwAKAYquQnXG4B/wOwI5dusAYYPU6SGuurLlKIgLUp+/2rpl1gu0otUwX/Wc9kk0vo6uvrY8uxNdk1JzflicVUbRYAFDsaDabMkj9GJD/Qg9ew7KhCVi/0d25AQCQSb0hydSBcvUVb9uOUot0yenfAOT67l8pKzFi9h7sBaA48GwHIOoOzf60f4j0nwA5Gz0sYLVXAzCwH+A5/PJvze+iLc3/1At+yJ4AG0S+0rMLdSiWnj4m2jBE5eHwT0Cij9PLrhxqkHtcgENKvlc6BR00AEj4ESQrk8Akdf3GO/S8i8+zHaWW6JKpu0Extsc3MN6Izj+JyD4WABQLmp01zoTBQgDDIrtpwi8WAalkZLeMnKrohuafhudcdJXtKDVDwskoZXhUtHI7TRKVgAUAOU+nzdjfQP8ESP/Ib+550IH93C4CoJDmlu/oORdxclklKE4q8foPI0pCVFYsAMhpOm3GaGP0j4D2LdtDPA86sL/zRYA2N38lPPfin9pOUs30udOHANLz7n8A0HBBRHGIyooFADlLs9P3MQZ/K8s7/0/yBDqgn9tzAgBIc9N54TkXfs92jqqlckqJd1gqo297LYooROXGAoCcpNmf9jeQPwDoV7GH+puGA1xeHaCAtOZm6nkXn247SnWSk0u6XGVeREGIys7hn3RUqzSbTSjycwHsXvGHJxLAgPKNNkTCqGhzy016fnZP21GqSbH7X0eXdBNf7ogoDlHZsQAg5xikf6LQz9l6vqZTQJ9eth7fNaHxtbXpH4osv4ejot6ppd1AnpN9b34hmjBE5ccfHuSUwqWzjgBwtu0c2lgPzaRtx+hYPj8I5zT/wXaM6qGldf+LYfc/xQoLAHKGzpjRz1PzO7iwRbUI0K+32/MBAGhz/hg976Iv2c4Rd7r0lKEARpV4F3b/U6y4/dONaorJ4ToAO9jO8RHfd38oAAptyV2v2WzKdpJYM4nSuv8VS2TErS9GlIaoIlgAkBMK2RlfBHCa7RyfpA11xTkBLgvCel3dMsd2jFhTlNj9D3b/U+ywACDrdO5c3wPc3eq2b2/bCTrXmjtRz7+ktBnsNUqfPXNPCEaWdBMxd0YUh6hiWACQdeHylV8B8CnbOdqVTEAb622n6JhR0Xzudtsx4smUuvnPs+z+pzhiAUBW6VVXNQgwzXaOTjU2FicGuqw1v4eed9FnbMeIHSlx9j+4+Q/FEwsAsso0h18HsL3tHJ1KeNB61w95U5hC+D+2U8SJLpmyF4B9S7qJ4fI/iicWAGSNZrMe1Fhf899lvRuc7wWQXH64fvfiMbZzxIZqqd3/z8joW16JJAtRhbEAIGtCpCYBMtR2ji7zffdXBKhCc+Z62zFiQ0qc/a+c/U/xxQKALJJv207QXeL6ZEAAaM3tr9de6/g2hvZt6v4vbfJpknv/U3yxACArNDtjsACftZ2juzSTLm4Q5DJjPPPqO9+xHcN9psS9//G0DJ+9IpIoRBawACArDPQkuLDlbw9ofcZ2hM7lw6/bjuC+Eo/+FWX3P8UaCwCyQiEn2c7QY3XuFwBSKAzWiy/e1nYOV+lzpw0DMLykm0jI7n+KNRYAVHGanbmLAONs5+ixZML9YQBVmGZ8w3YMZ6lfYve/LpJ9b18ZTRgiO1gAUMWF0M8jpt3/AAAR91cDAJAwONp2BnfpiSVdLtz8h+KPBQBVnAAH2c5QKsm4XwBoEJbWxV2ldNFpA1Fy93/Avf8p9lgAkA2xLwBi0QNQCOr0WxftaTuHcxIYhlJ6oARPsfufqgELAKoozV41CMDutnOUzPcBz/1vH+Orc0csW+ehtAkcyu5/qg7u/wSjqhIgGIM4j/9vQVMJ2xE6JVAeEfxJfvKfJVytMAELAKoKLACoojyJ0da/nUkkbSfonJo9bEdwzj43vQlIT7vwF8jo216LMg6RLSwAqLJUd7MdISqScHwpIAANzQ62M7hGBAqYX/bw6mujTUNkj/t9mOQEhQouv2KXIEzuKWp2FUEfqDQA2gigz6ZPawHQDMEqVVnle+afMPmlks2u33wfgeymUCv/hsi5vhcAAASmt+0ITqpf83O09P8KFPt0+RrBo9h39m1lTEVUUVUxFkvR08sv3zUM/EMFOAzACAB7Aqjr4e1eE2CpQpcC3umADo4sqE35AuT9D22n6JT3m2v4fd4GXTJ1N8D8A8COnX6yYDmC/CEyZt6q8icjqgz+YCAAm97hZ2d9xsCcDuDwWB3Ta0sYQt51vz2QPolt5Cc/+cB2Dhfp0tO2hfH/F9CJ7X0KgNko5M+WsfPWVTIbUblxCKDG6WVX7mHCcKrBzKkABrMm7I6Y/F8l6rcFwAKgDbLvre8BmKTPnjoa4p8GYAyAvgA+gOIpeGaOjLj1RbspicqDBUCN0mkzRxqjF5gwPB0ocV10rZKYFAAaDgKwzHYMl8mo2xYDWGw7B1ElsQCoMTpt+kFqcIkx+gXbWWIvJu0/AjPQdgQicg8LgBqh2Su3MwivNAZTEJ+mi6KgXgw2LCCiSmMBUOU0m/VCZKYYhD8FMMB2HiIicgMLgCqm2Vk7hTC3CTT2h+8QEVG0uBNglSpkZxxuYBZVw9G7REQUPfYAVBnNZj2D9HQA3wPH+omIqB0sAKqIZrMpg9TvAZxqOwsREbmNBUCV0KuuatCm4A4AX7SdhYiI3McCoArozJl9wqbgLwLsbzsLERHFAycBxpxms5mwVe9l409ERN3BAiDGdO5cX5GeLcBnbWchIqJ44RBAjJnlr/4PgBNt5yAiovhhD0BMBdkZXwf0P2znICKieGIPQAxp9opPGeAa2zmIiHpKl53ciCA9ETDjAekPyEaoPgfx7pKRN79vO18tYAEQM3rVVQ2mKZgLoN52FiKi7lLNenhuxQUI9GJA+/57vzLd9Fvzc11yxvVowSUyYc56i1GrHocAYsY0BVcC2Nt2DiKi7tIXv9oLz73yAKBXAujbzqclAJyDDP5Pl562bQXj1RwWADGi02bsB+As2zmIiLpLl315O+Ryj6Krm5UJRsJ49+qi/+Rx1mXCIYCY0GzWCw2uE8C3nYWqhy6aWA+VvQAdBpWhCHUHeLINjOkH0Uao1gOSgJo6AAkIPCgyEGmBqhbvIgYiTcXfwkCxFp63GiqrAPMeJPEufLwJwZtYmVwqk+fl7f2LyQZdOnVvBIWHAOzazUvHIdV8FoBflCFWzWMBEBNGMmeJ6njbOSiGBrZsrwuPOxdaOBAGQ6FmB6jpB0UKLS2V7QXcXqCPfz6AeE3wvA9hvLfhef9EQpej4D0qB/xhQUXzUNnpkimfgTH3AOjfoxsYPRcsAMqCp8XFgGazGYP0SgA72M5CW1CFvP2e7RSdkqNbgCFNgBogLABhCGgAhJt+QW1H/DcRhedvgPhvwfOeh+JJJPz7ZOw9K21Ho+7TZ884HoI5AOpKupEJd5PRt70WSSj6CHsAYsBI5mtQZeNPpREPSKS3/q43wabCoAAEheLHtqgKwqA3EOwDYB8Ak1HA1cVeA/9t+ImFEDyIIHO7HDivxV5Q6owuOePbAH6CKOaa+d7uAF4r+T70MewBcJz+6ldJ8+7qlwEMtp2FPiFuPQBdtbmnIMgDYX5TL4FjRBReYg0873mIfyua1/9ODn201XYs2rTMb8mKH0P0vMhuKjhKRsx5KLL7EQD2ADgv/NeHpwtksOUYVEs+6ilIFz/WsFgMbP6lxm4+YFNPQaE/QnwWwGeRSl6vTx61CuI/AklcI+PvftJ2xFqkrxyZxnMrfgfRUyO9sfE5BFQGLABcp8Jlf2SX+ECyrvgLKPYOFHJA0AqY0G62zYwKTH4QgFMAnKKPfyEHP/UsRP5Hxt/7e9vxaoE+d3o/NHt3A3pwxLd+GyOHrIj4ngQOAThNszN2N8DL4NfJTdU6BNAdJgAKrcWCwObcgY54XgA/9Rw875fY/94bROBAF0Z10WdO3xUJeRCKfcpw+x/KyDlXlOG+NY8bATnMQKeCjT+5zEsA6UagcQDQMABI1ReHEFxiTAKF1jHINf8aT3w+p/OPXqBPHjvRdqxqoYtPHwVfnihT4/8Seid/Uob7ElgAOEuhAsgU2zmIusxPAJleQK+BQH1fIJl2r3w1JoFCbhyCpnv18SPX64Kjf6dLJ3G72R7SpVOOgCf/h3IsURa8C9GjZLffcXJnmbj27UmbFE/885bazkEd4BBA59QUhwjyTYBxteddAD/xFvzkzzHu3h9ziKBrdMmUMwH9DYAybNUrK2HMkTL6lleivzdtxh4ARxnIYbYzEJVMvOKwQOM2QH2/f68scIoCYWEn5Jtn4YkvbtT5R9+gj03qZTuVy3TJlHMB/R3K0vhjAcLcAWz8y48FgKME3qG2MxBFKpEqDg00DgBSdW72P5qgDoXcV4HcGp0/6S+66JShtiO5ROee7OuSKdcD+jOU4yuoeg8KDYfJmHmrIr83bcXFb8Gap3Pn+mb5ylUA+tnOQh3gEEBp1AC5puIQgQt7C7RFROEnl8JPnC3j7v0/23Fs0iVTGwC9FdAyTaDU32D1O9+QQx91dDlJ9eE+AC5avmIvQNj4U3UTrzhpMN0I5JuLv1wrBFQFQX4EgsLfdf5RLwHpr8uEux+zHavS9IUzByAX3gvBgeW4PSDTZOScbBnuTR3gEICDQmCY7QxEFSMCpBuAxoFAupd7ywgBAAoU8nuhsPEfOv+olbpwYtSb3ThLF586GHmzoEyNfx6QM2Tk7GwZ7k2dcPE7reaJyF62MxBVnAiQrt80R6Aebo5QKlDID0G+5VF98qjn9Onj9rOdqJx00WkD4fl/BrQccyHWQfWLMnL2rWW4N3UBCwAXKfa0HYHIms1DA702TRZ0kQII8vuipWmRPjnxYV102kDbkcoiIVcC2KMMd34HRg+RUbc8UoZ7UxexAHCQlucbjihexAcyvYtDA4mU7TRtUwWClkPRuvpfOn/izarZqplXpc+euSNEzizDrZfBCyfI6FueLcO9qRtYADhIgAG2MxA5w/OLewjU9wM8R39kaeij0DIFT85fq/MnftN2nEhIcCIAP9qb6sMo5A+SfW97M9r7Uk84+t1U87gJCdEnJVKbJgo2FOcLuCgMGlBouU6fPGqFLjgq3kN56g2P+I63IFE4UsbOWxfxfamHWAC4iQUAUZukuGywYYC7wwIAEOSHolB4Uecfc4Oqk7MZOyca5QSMazFij6kyfF4+wntSiVgAOKZ4CBAabOcgctrmYYG63u72BqgKCq1fxRNHrtb5x33edpwe+DCCe4QQ/JeMnHOuSNaxTR6IBYBr5s7zwK8LUdck64rLBp08Y2ATU+iLwsY/6YKJ9+rckx3utvgE0SdKvEMLRE6SEXOuiyQPRY4NjWNk8uQQQIvtHESxIX7xjIG6Pu72BgBAvmUidtqwSucf/2nbUbqkbs29AHq61/VqqPm8jJh9T5SRKFosANzESTJE3ZXMbJobUI4D6iISBr0RbPw/nT/xZttROiN7PJQD9NIeXPoq1D9ARt1ac1smx43D5XJ8aTbbWBycDBvhSa/AoA8AL+FpCyCtkGA1Ghr+Jeef3+Y7/TA740UA3A3QdTwMyF35ZqB1g+0UHUuk3kLGO0xG3+/ssbeqECw94yYopnTpAsFTEDNR9r3V/W8MYgFQCs1mM4EkD/BU9gO8PRW6lxT38R/UtTvIWoVZIZAXIFjmic5HXXJR2FR4WCDjyhqeSscCwG1hAWhZB5jQdpL2iR8ikfqOTLjvZ7ajtEc162HJiukQvQAdHSAn+C3UO0dG3lyDL7Z4YgHQTZqdNdZAvyjQQxU4EEAm4kcEAEIADs9qIgAsAGJBgZb1xSOHXZZI/xUT6r8oMs/ZakWfPW04xPsmgKMA7IziJkHvQPAwFNfJyDnz7Sak7mIB0AV6+eU7mjBxElS/AmCk7TzkCBYA8RGHIQE/+R60brwcdNfrtqN0Rh85JIFB23hc1x9vLAA6ULj0is/56n1fgcPACZP0SSwA4iUoAK2ODwl4XgFe5lQ54N67bEeh6scCoA2F7IzDBbhMgAm2s5DDWADEjwmL8wLCgu0k7RMB/NTP5YAHzrEdhaobC4AtaHbWuBDhdQIZazsLxQALgHhSBVpjMS9gCSY8MEYE3EGPyoIFAADNZvsapC8F8C1EfvoVVS0WAPGW2wjkHP9/8ZNvAWakHPin1bajUPWp+XHtIDv9BIP0SwDOARt/otqRbgQyvW2n6FhY2AnqvaaLJg6zHYWqT80WAPqrXyXD7IyZArkDXV63T0RVJVUHNPSD052hptALufxz+tTxR9iOQtWlJgsAzc4YEr774RMALoTT3/lEVHZ+qlgEiMM/Dk2YRL75j7pwUtd25CPqAodf8eWh02bsb4D5nOhHRB/xk0BD/+Ixw64yoYd8y0365LFcHUCRqKkCoHDpFZ8zBn8DsI3tLETkGM8vFgF++7vdWqcqCJqu0QUTL7YdheKvZgqAIDvzdE+9hwD0sp2FiBwlHlDfr9gj4LJCyxU6f9KVtmNQvNVEARBkp08S6O8BOP5dTUTWfVQEuNwTAKDQ/F19ctL/2I5C8VX1BUAhO+MQgdyOjk6xIiLakoj7RQAABM3/TxdO+oXtGBRPVV0A6LSZ+3qQuxH9iX1EVO3EA+r7uz8ckGv+ls6f+GPbMSh+qrYA0OyPBxqjDwLa13YWIoqpzT0BnuM9AYWWC3T+xP+2HYPipSoLAIWKonADgJ1sZyGimBMp7hPg8hJBACi0XqoLJp5nOwbFR1UWAObSmd9TYJLtHERUJcQD6vsWiwFnKVBo/YkuOPbrtpNQPFRdAaDZWeOguNx2DiKqMl6iOBzg8o6BqoJ88691/nGftx2F3OfwK7n7dO5c38D8EpzxT0Tl4CeB+j6ObyCugrDlfp1/7D62k5DbqqoAMMtXfAvAaNs5iKiK+Skg08d2io6ZMIkwt0AXHD/AdhRyV9UUAHrFFdsC3qW2cxBRDUhmgHSD7RQdM0EjwtZlOvfklO0o5KaqKQBMwb+MS/6IqGLSjUAibTtFx8LCttil+QnbMchNVVEAaHbWToB+yXYOIqox9X3c3yiokNtP50+6wXYMck9VFAAG5jsA2M1FRBUmm5YHur5HQMtXdcGxp9uOQW6JfQGg06cPAPA12zmIqEaJV+wJcHppgAKF1t/rgqP2tJ2E3BH7AsDkvbMANNrOQUQ1zE8W5wS4TMMEQn2SkwJps9gXAIBOtZ2AiAjp+uLqAJeFhf7YqeVR2zHIDbEuAHTa9PEAhtnOQUQEAMj0BjzHf6yGrQfowkmX2I5B9jn+Su2YMeC7fyJyh2yaFOi6fGtWnzr6U7ZjkF2xLQAUKoCcaDsHEdHHeEkg3ct2io6p8RCYR1Tj2wZQ6eL7xc9OHw5gO9sxiIi2kq4vbhnssqAwEAuOud12DLIntgWAgRxmOwMRUbvqXF8aCCBoPUkXHX+y7RhkR2wLAIF3qO0MRETt8jygzvWhAAC55pt0/pG9bUehyottAaAwn7WdgYioQ8k6IOn4eQEmzADefbZjUOXFsgDQK67YHpD+tnMQEXUq3au4OsBlhdxndeGxp9iOQZUVywIgKHh72c5ARNQlng9kHN8lEACC3A3cJbC2xLIA8ERYABBRfCTr3T81MAwasEvzXNsxqHJiWQBAwQMtiChe6nrHYSjgWF10NCdY14h4FgAwO9hOQETULV4CSNXbTtG5nOHeADUilgWAQBxfW0NE1IZUQ3FOgMtMYRtdcMyPbMeg8otlAWB4/C8RxZGI+8cGA0Ah/wPuDVD9YlkAsAeAiGIrmQESjk8IVJOEJGbbjkHlFcsCANAYDKQREbUjE4M314XWY3T+pBG2Y1D5xLQAQM52ACKiHvMSxV0CXaYq0JATAqtYLAsABTbazkBEVJJ0g/vLAoPcMJ1/1LG2Y1B5xLIA8KAsAIgo3jwfSDneCwAAil/YjkDlEcsCAPA22E5ARFSyVAPcPzI4v5M+MfE02zEoerEsABR4y3YGIqKSiQek4zCnObjadgKKXiwLAEBX2k5ARBSJVAzmAoSFbXXBsV+3HYOiFcsCwAArbGcgIoqESHFCoOvC/EzbEShasSwAEr7/iu0MRESRSdXHoRdgAHsBqkssCwCEzf8EdLXtGERE0ZB4HBRkClnbESg6sSwAJJs1AnnSdg4iosgk69zvBQjyO+r8SUfYjkHRiGUBAAAq+IftDEREkfF8IJGxnaJzGv7UdgSKRmwLAE+FBQARVZc4LAkMcp/SRROH2Y5BpYttAQC0LgTwvu0URESR8RJAIm07RecCXG87ApUutgWAZLMBoHfbzkFEFKk4TAYMcgfrspMbbceg0iRsByiFEb3dUznLdg4iosgkUsX5ACa0naR9ajxszE8DcL7tKJWimvWw9KU9YbyxEB0LyKcA7ABgAwQvQ/EHvJS/WybPc/gL93GOTzntmGavGmQQrADQy3YWqkGqkLffs52iU3J0CzCkyXYM6o5cE5Bz/MwzP/mhHPjQQNsxykEVguVThiIwYwHZ9EvHoPO25gWofllG3bKwEjlLFZsCQK+4Ytuw4B8q0FECjFBgBIAdbeeiGsYCgMpFFdj4PqC2g3SiofFwGXPP32zHKJUuPnUwPH8sVDa9u8d+APr28HatEJwgI+Y8FGHEsnB2CECz2QS89EhjMBHAMaaAMQIVwP3vCSKikogAfgYIWm0n6VguPw1ArAoAXXLGThAZC9WxADY39sWeDImkdclAcbsuPWW07Hu70+fWOFcA6LQZ+xmDMw1wBgwG2M5DRGRFKgYFgAkm6KKJ9TL2vmbbUdqiy768HQqFsZBN7+wV+wHYDlr2t5G9oInpAE4p94NK4UQBoNkrtzMwXwf0TGOwh+08RETWJdLF44LV2E7SPmM8BLgEwEW2owCALp26NzScBJUDAIxFUNgRm/uNK911rDhBl53cX4bPc3bbeqsFgF5++a4m8M83CP8DQJ3NLEREzklmgLyTb67/TcMpsFwA6JKpuwF6DYyZ6NDUtgQKqYMBOLtc3UoBoNnpexrIRSbAGQCSNjIQETkvDgVAUNhJF52wvYy9610bj9fnTjsAau4DHBwy9sTpieoVLQD0qqsaTFPwXVOsFlOVfDYRUez4yeLugCawnaQDCoTBxQDOrviTl5yxExT3wMXGHwBg8rYTdKQiOwEqVIJLZ5xsmoIXAPwIbPyJiLomGYMDgkxwkpXnqswEMMjKs7tCxelVAGUfLNHsjN1D4EYBPl3uZxFVFPcBoEoIA6DpQ9spOiYAwoZd5OA/vFmpR+qyL2+HoPA23N3Sfh0S+UEyfJ6zvQBl/Y8LLp1xsoE8VfONPzcuIKKe8hPFYQCXKYA688OKPrOQPwLuNv6A6LUuN/5AmeYA6KxZvUyLuQ6KqWz94NCkVCKKpUQKyLs8DwBAEEwCUMGzWWS3yj2r256HX7jSdojORF496bSZw02LeQbA1KjvTURUkxIxmAegwbY6/8jeFXueqKtvrV6ECSfK8HmOH+YQcQGg2ZkHGqN/B7B7lPclIqppiWRxUyCXGRV4qf+s2PPUe6Niz+qaPIBrUchPkNG3vWY7TFdENgQQZKefZKA3A4hBqUpEFDOJNFBosZ2iY2E4GcCPK/IsYx6Gb7UTIA/ocxB5GgaPIZl/0OVd/9oSSQEQXjrjQihmgKPdXaPg/xQRdU8iFYMCIBhRqUfJmFte1+fOeACKoyvwuACCl6F4GpCnoeHTaA6elgPnOf4F6VjJBUCYnXkxVK+IIkzNYONPRN2ViMH2KRqkdeGxB8q4PzxRmefJBYAeDKAxwruGAF4EsAgii6C6CE35JXFv7NtSUgEQZmd8E2Dj32PsCSCirhIvBrsCAtDwmwAqUgDIyNkv6eIpp8LTO9Cz4WcD4BWoLILoIqhZBEkslpE318TGGT0uAILszCmA/jzKMDVHwCKAiLoukXR/OWCon6nk42T07Af0udM/DSM3QDCyk89eCegiQBfBeIuQ02dkwpz1lUnqnh4VAMGlM48V1Rvh8iYMccHGn4i6yk8BcLwn2gQVPwBHRtzytCpGY8kZR8DDMVDsAaAewFtQLIWniwA8LSPmrKl0Npd1u/nRy2btZUKzEEDl1nsSuYhbAVOlqQIb3redonP1vQ+Q/e6abzsGdaxb7+A1m200obkLbPyJiCpPxP1tgQGgEEyxHYE61+UCQKFikLoBwD6Z+TToAAAgAElEQVRlzENERB3xk7YTdE6Dz9qOQJ3rcgFgLp15PiCTyxmGiIg6kYhBAWAMd4ONgS4VADptxmgoZpY7DBERdcKLQwEQ1OkTJ1d8MiB1T6cFgGazXmhwPcp0ciAREXWD7yMWy4e81mNtR6COdVoAGKT+S4AJlQhDRESdEcCPw/uxyu4HQN3XYQGgV1yxPSDTKhWGiIi6IA4FgNF9bUegjnVcABS86wD0qVAWIiLqijjMA0C4s+0E1LF2CwCdNv0ABY6vZBgiIuoCz7edoHMm7KXK3WJd1n4BYHBpJYMQEVEXxaEAUBU8NenTtmNQ+9osADQ7a4JCjqh0GCIi6gLPL+4K6DoDtiMOa7sAQJitcA4iIuqOWOwIiOG2I1D7tioAdNr08Qr5go0wRETURRKHYYBgN9sRqH1bFQDGyH/ZCEJERN0Qh3kAgu1sR6D2fawA0Gy2EcBxlrIQEVFXxaEHwJi+tiNQ+z62m0SI9KkCNNoKQ45JpSD77AXsNhjSpzeQsjzmWChA8wVgzVpg1QfQ198E3l9lNxORLV4MVthpmLYdgdr3ye2kvmQlBTlHRu0LOeJQoL7edpSPkU/+ft066HPLoE89A2zYaCkVkQVxGAJQFV18zB4y+v5XbEehrX1UAGh2xu4GOMhmGHKDHH4I5KCYHP/Qpw/kMwdCDhwPffpZ6CP/AFpbbaciKj+JQQ8AABS88QBYADjoo1eQgZ6AWBwxReUko0fEp/Hfku9Dxu0H7+z/hOwx1HYaovITiUsRwJUAjvro1SPc+IfSacjhh9pOUZr6eshpJ0MO4UFkVAPiMA8gxA62I1DbPADQbDaj7P6vebLPMKC+znaM0gkgBx8EOeaL8dgtjain4vD69gyXAjrKA4BA6j4DoAp+8lNJhg62nSBSst8oFgFU5WLQA2Aw0HYEapsHAJ4adv8TpHcv2xEiJ2NGsgig6hWHOQCi/WxHoLYVhwAAnthEgFHbCcpCxoyETDySRQBVnzi8po3pYzsCtc1TqAiwj+0gZJ+uXWc7QtnI6BHsCaDqE4dJgNAG2wmobR4uv2InAKzQCFix0naCsuJwAFWfOLyW5ZMbzpEjvCDweVwjAQD0hZeL2+xWMQ4HUHWJw+tYY7BlYW3yPCi7/6koDKEP/hnQ6pwLsBmHA6hqxOElrBqHcYqa5AHeMNshyB264tXaKAI4HEBVIQ6vX/YAuMoT6CDbIcgtumgxzE23Vv1JeywCKPbi8dqNRchalDBAf351aCuvvQHzy98CO+8IGTIY6NPH+nHA0rcPsMP20d5zzEgAgN7/x6rv9SCyIw6bFdSmhAD9bYcgR6kCb7wFfeMt20kAAApAhu0JOXESkIhuYjGLAKIyUsP3mI7ywAKAYkRffBl66x1AEER6X64OoHji65V6zgPAbRopVvTV18pTBIwewSKAKGrisVvNUR4AbtJAscMigAiAGtsJuiAWIWuSByBnOwRRT7AIIIoBBXsAHOUBygKAYotFANW0WDStHnsAHOUBwgKAYo1FANWuGFQAAhYAjvIAabUdgqhULAKoNsWgAICGthNQ2zxA19sOQRQFFgFUe2Lw5trz+SbTUZ4Ab9oOQRQVFgFUU0wMegAUG21HoLZ5Cn3ddgiiKLEIoJoRh50rPVlnOwK1zYMICwCqOiwCqCbEYYm9ylrbEahtnioLAKpOLAKo+sWgBwDeatsJqG2e7+k/bYcgKpeyFgGTWASQZSYGE+xF39/yw6mP3zRo4qJfDbQVh/5N9Npr02Z10zoAadthiMpFhgyGnHZSpKcIAgAeWwC96Tanx2Ll6BZgSJPtGFQOG1a5PwyQqL/k9Mav/W9zy4bZTXkcmlf4AJD2NVfvyzNJkR/fMe6Mu2zHrEUCAEF2xpMCTLAdhqicarUIYAFQpVSBDe93/nmWLc8MPuu8wiE/bQ3R0N7nZDzN1SXlH+mUTJ876oxHKpmvlgkAhNkZPwVwnuUsRGVXtiJg6XLonx8BPnRvuFMObQV2brEdw03BesDEdJm6CYCNH9pO0alTE6dseDeo69XVz0/7mmtIeA/7Ke8Hd446bXE5s9W6TT0AMycL9HbbYYgqoWxFAMVT/n1g7QLggweBYIPtNF0X5IBmtyfYq3g4RM/s0bUCoC6B9Wlf/5bxkz+4fb9TX4g2HQkA6OWX72wC/w3bYYgqhUUAbSVsBt78JbD+GdtJuqbQDLS4XbDkvAw+b06N5F71CayuT+gd9YLs7LFT343kpjXuoynMYXbGUgCfspiFqKJYBNDWFHj9GmDdIttBOpfbCOTcntvxod8bJ4QnRHpPEaAhgffqfL3Fq0//97zhk7nTYA95W/z+TmspiCwo1xJBijMBdv5/QLKf7SCdi8ESwNWoi/yeqsDGArZd1SrnfbC2sP7oBbNXnrRw9mVffuSRTOQPq3IfFQCeJywAqOawCKCteBlg0LG2U3QuBgXAG+hT1vuHRmVDHkPez+GHryffbj5mwc3LT1o0+5tQ9Tq/mj62i0mYnfEigL0sZSGyhsMB9DHhRmD5t9w+yXbD+84uPd3s5/6BuCPcs+LPTXkSZBJmWSbhXXXHfmfMqXiAmPhElaR324lBZBd7Auhj/EYgtY3tFO0zxvnGHwCeMttZeW7eaGJ9Xka+36yzj3ji5tZJC29+9OT5txxhJYzDPlYAeH7it4jFAdNE0WMRQB/jd3npeuUZ91+jKj5e1962YyAXSnptTg5+r2D+fMQTN7cet3DOgycvvHGU7Vwu2Gojc5Od8YACR9kIQ+QCDgcQAOCl7wG5d2ynaFuuqbgKwGEb/XocHU62HaNNW+4xkErjonkjp75kO5MNW02UCIFrbAQhcgV7AgimtbhBkKtiMAFwFRptR2iXAmgO0HtNTo5/fwNePGr+ze8ev2j2Nccv+P0A29kqaasCIJm96M8AllrIQuQMffU1mNlzgVzOdhSyYf1iQB0uAGMwBLACMVhKCUBVsLEg233YgnPWBd77xy2cfRtUa+KYz7aXSohcV+EcRO55/Q2Y384GPnB/v3WKkIbAey7Ph1YgdL8AeFx3sh2h2wIj3uocTpm08OaFtrNUQpsFgKetNwK6stJhiJzz/iqYX/8OumBRceY1Vb93b3F37B/Y1Pi7vgJA8LjZ3naIHlub98aeuGjOubZzlFubBYBks3mF98NKhyFyUqEA/eNfYX75W+jSZSwEqpWGwDuzgQ/+ZDtJx8KC7QSdavIzyCPek2hbAvN92xnKrd1xDoVKmJ35DwEOqmQgIuc1NECGDwOG7gbZeSegjjuQxpoWgPXPAu/dBbS+aTtN51rWAgW356a84O+I/xfGe9l90kPwt4OmJG3nKKd2SzSBqGLWdwzME+igUCCqOU1N0IVPAwsWAW+/B/TrC/TvB6RTQH30e5+XSsbkgUFuNxhWaAEorCl295sY/f/EoAfgWQyyHaFkgWq8uzC6oMN/oGQvnG+yM+5Q4ORKBSKKnTVri79ctW0LkHb71DjqIjWxGIJ62OxiO0LJpAYWAnR6YIKk9FsA3qtAFiIi6kiQt52gU4GXwhtePJYA1rrOC4CLL16lImdVIgwREXUgdH+oYlWyL/bqq9imzvWVCh2Ld/qu6dKRiYkfff8PgNxQ7jBERNSBGPQALE/uBE+AnRqAob2BJA/mdVaXvzReg38ugFfKmIWIiNpjgliM/z+R3u2j3/dOKYb1U/RO1sL76fjpcgEg3/1ukwdvCoCWMuYhIqK2xODdf97P4EP5+BkACQGG9gF2aIjXcrJaKFm61Tkj2QsXKvRM8MhgIqLKikEB8E6y/bN0tq1TDOmt8ONSBcQlZwm6PTqTyF58BwTcJZCIqFJUY7H+f0F6aId/3zsF7NVPUee7//5a3I9Ysh5Nz/B/dNEMQH8VdRgiImpDWCjuAeAwFR8Lkrt1+nlpD9ijL9A3VQMtrON6PD/T237A2QL8McowRETUhkKr7QSdei/Zv8tjw74Au/UGtqsva6SS1EJ50uMCQM46qyDIHSuQu6IMREREnxC6P/7/TLrzd/+ftH29YudGrYXhdieVtEJTstm87DNkMoDfR5SHiIi2FOYBE9pO0THx8Gh6jx5dOjAD7NZbIbUw6O6YkrdokMmTQw+5rwL4TQR5iIhoSwX33/2vSfYp6fjfPilgaC+4t0JAq/tAgEhOO5Js1ij0P0125hoA343inlWhLgPZa09glx2BxkbA920noohJzv0fzhgYAnWOv4PsClUgWA/k3gLWPQXk/mU7UWUE7o//P5UeUvI9eqWA3fsoVq4XBO7MdxRU8XSAyKub4NIZp4niNwAcnt5RZiKQg8ZDPnMgkErZTkNUhRRY8wTwzs1AuNF2mPIJ8kDzGtspOqTi4cIBp5XUA7Cl1hB4Za0gcKDZ9T69IvmoZAPbOcol8l2aEz+66FbPwyGA/DPqe8eC50EmHw/53CFs/InKRoB+BwF7XAqktrEdpnxiMPv/3eTAyBp/AMj4xZ4AF4YDNmB7B1KUT1mOaZD/vugpD62jAMwpx/1dJp8/DDJsT9sxiGpDaltg8HmAJG0nKQMFAvdP/3s0Myzye9YlgD362i8ChizvxwKgJySbXe9BfglgQ7me4ZxtB0HG7Wc7BVFtyewCDPyC7RTRK+Sc3/wn9BJYlNq1LPeu29QT4Flsgrd7vZEFQHcpVMJLZ55roA8D6FWOZ7hIxo0BpKpfL0RuGvgFVN3m7THo/n81vQNM+d5Hoj4BDOllrwjYUFdXZS+qj4tu4GYTzWb7KmbeDsXno76362Ro6TNhiagHkv2A9PZA7h3bSaKhYSy6/+/NjCr7M3qlirsGvrqu8tPxP+z1cvmqGwdE+o/T7IwhBunHFbXX+EME6F0znR1E7qmmyYC5ZtsJOrUm2Rdv+v0q8qzeyeKOgZXWN1ndPQCRFQA6bfoBBlgAYJ+o7hk76sC6FaKaVS3ffxqL7v+H64ZX9HkDMsCgusp+jVsTG1gAdEanTT/YGPkTgIFR3C+WVIENtTPfkcg5+Q9sJ4hGodX5yX+Bn8LjqcoPee5YX9w1sFKCjY3pyj2t8kouAIJLZx5pjDyEGprs1x5dUZtbHxBZl/8AyL1rO0U08i22E3RqSWa3sk7+a5cAu/ZS1CUq0xPgJxJfrMiDLCnpK1jIzjhMVO8GUBdRnljThU9zGIDIhg//gqoYAggLxV8OU/Hwh8xIa8/3BRjaG0hUoHO+Oa8/gWrVTgTs8T9Ms7PGesA9AKq6i6Rb3l8FXbDIdgqi2tL6BvDBn22niEbe/cl/r6W3x3qx+54v6W06QbDMz9kYYNtjFs5+4ewHH6zKdq5HBYBeduUeBuZBsNt/K/qXR6AvvGQ7BlFtyL8HvPZTQN1+19wlJnR/8p8I7qgfZzsFAKAxCWzXUP7nrM/Lniv7r/7ncYtv7Fv+p1VWtwsAveqqBhOGdwOoojU3ETIGOu8e6F8fBXLur+MliicF1jwGvPKj6pn8l2uynaBT76S2wdteb9sxPrJtnaJXBXaB3ljA9q2tqZWnLb1l2/I/rXK63YMSZmf8HsCZZchSfTIZyLA9gJ13AnrxOOBqxOOAK0gVCNYBrZuOA86/ZztRdIwBNq6ynaJTP+93FFb6br33KxjgpbWCQgUWTmQS2tQrE4y+c/RXXin/08qvWwVAeOnMc6H6s3KFIYoVVcjb7jdCcnQLMMT9d5c1rXWD8+P/H6b647LeE23HaNOGArBynVRkGmjGl5Z+9f6o20ed+nIFHldWXR4C0GnTD4DqleUMQ0RUc9TEYunfnfX7247Qrl7J4nBAJbSGWremOXz29Md/U55TkCqoSwWAzprVyxi5HQAPuCciilLrRri+hHFVegCWJ7azHaND2zUUDw+qhNZQ61Z7mcVxnxjYpQLAtIRXANi5zFmIiGqLCYGC++/+b6ubYDtCpwTALo3lXxq4WXOAfvlc8oUvP/JIpkKPjFynBYBmZ40F5JuVCENEVFNyG20n6NRb6e2wMhGPXd7rEpU9L2BjAdt9UPf28kM0W6G+h2h1WADo3Lm+gf4KAKevExFFKQxise5/dsMBtlN0y3b1QLqCLdb6AnbrvXDoE5V7YnQ6LADM8hXnAjqmUmGIiGpGDN79r8jshH85tO6/KzwBdmms7DPX5mX/45+a89vKPrV07RYAOnNmH8C7pJJhiIhqQpAHArc3CjPi43f1B9qO0SONScXACo/Mr87pV05cPPtLlX1qadotAEyrngdorGc4EhE5qdX9o8Mfb9gHGyW289uwQ4Mi4VVuPoAqsK4JN5zy9G17V+yhJWqzACi++8c5Fc5CRFT98k2ACWyn6FBrog53Z0bZjlESX4rzASopr/DX5YP5Jy+bW+FBiJ5pswAwrTgXQL8KZyEiqm5qYrHn/7yGCTClnRbvhIEZIFPhKezNAXq3bMz/o7JP7ZmtvsKazfYG9Ns2whARVbXWjcW+Yoe9mx6Ep5O72I4RCUFxKKDS1ucx6vhFsy+t+IO7aasCwCA9BXz3T0QUrbDg/KY/Kj5uaPy07RiR6pMCGpIWioAcfnjyM7P3qfiDu2GrzQsU+iWp2F5KRFWgf1+gfz8glQLq62yn2dqOeaCPQzPOTStQWA3k3i52idcCVaBlve0UnXq0YV98IL1sx4jcjvXAy+sq+8yCgdeUx18B7FDZJ3fdx1p6zU7fx0CW2QpDFAuNDZDhewO7D4HstCOQSdtOFE/BBmDtY8D79xZ/X81aNxYn/zlsQ7IXLulzgu0YZfPPDYK1FurgARn88u79p3yj8k/u3McKgDA740oA37WUhchtg7aBfPoAyPBhgBf/CVLOCNYDr18DNL1kO0l5hAHQtBpOH/gjHn7S9xi86Vfv6G9rALy4tjJHBm/J86D9Mzjwrv2mzK/wozv1UQGg2WzCIP0GgO0t5iFyTyoF+dzBkP3HAMLhsbIweWDlNKDlNdtJotf0YbEIcNj8hn1wW527x/1G5dX1wLp85b+H6xNYv40xe9x80JnvV/zhHdiiAJj5WQP9u80wRM4ZtA28yccDA/rbTlL9cv8CXr4Q0NB2kujkmpzf8rcp2YhL+hxfFcv+OrOxALyyzk4Rn/bR2pjQexIJfRBe5uF5oya/bSXIFj6aBGhgjgAn/xH92+Bd4J16IpDmGH9FpLcD+h4ErPk/20miEQbOr/lX8XF94+E10fgDQGMSaEwAGy10yORCZHKhnIqcnArkcehjszXlaUvCl38lRV7yxbwIlWe8htSD84ZPXl2JTB8VAAo5gs0/UZEM3Q1y6olAIpanfMZXn/2rowBQBVrWwelxfwB/bRiJt/0+HX+SYC0MPoRgLQAo0EuKbUcCwDYAHFz60r5B9YqN6+23dqFCWkKpR4ghgA4B5EgAkFwehz8xu5DwsM4TfScheDEF76kwIY/fPfrlBZBsZEtnBAA0m+1rkP4APPaXiI2/TYUPgRfOtZ2idK3rgLzbR/2+mx6EWb2O3PzhvwA8C8VS9fCCiDwfmPDV64aduRoiHVYx31lx06BC6O0Ko7uo6lARbzygE+Dw8rcX1wItgf0ioLtEFCmR1oSPVQlP3xDxXkyJmS+J9EM9GVIQAAiy008QyJ3RxyWKFzb+lplW4Pmv205RmiAHNK+1naJDgZfEZX2Pf2SdV/8AJPzLNXudubSzhr67zl120y7iyUGqOAoejoHCmcPlVrcCr2+MXwHQkaQHk/LxXl1C71m938pzHpVspwMdAgBhdubV3P6Xah0bfwfk3wNevMB2ip7TENj4oePb/QqaMn3PbNx/3s2VemJ22dzU2kT+c0b1BFGcDKCTcYfyUgWeXy0IXP4ylaA+gTWZZGL/e8aeurKjz0sAgEA/VaX/D0RdwsbfEc2v2k7Qc6pA8zrHG38AycyNlWz8ASA7fHIewEMAHvreizec36rpLwv0bAB7VDLHZiJAv4xiVUt19QJs1hygn0jwBFS3h0i7cwY8AFBgeOWiEbmFjb9D1j5pO0HPtW4o7vfvMj+9TCbc91WbEa4c9rUN1+495ef9hq0cBshEAAts5BhQ5Yt7mgoYdOIzt3Q4oUY2TQBcU6lQRC5h4++QppeBlZfB9Znzbcq3AK2O7/XvJzbCkx1lwkNuBVWVc1+YMxmiMwDsVslHv7xO0OR4zVaK3il94f7xU9s9kMiDl+K7f6pJbPwdEqwD3rgOsWz8wwKQc6tN3Yp4Bl79Ec41/gAgotfsM+V2k1iztxa3oq/YwRDV3guQCzsuqLxQMaxSYYhcwcbfIa1vACsuLS4BjBsTAi1rHa9bBEimvyMT7nJuL/ot/XyPc3LX7j31x4F6+wpQkV1p+6UVfnVOAwAA5EPJHLf4xnZXX3gC2a6SgYhsY+PvAgWaXwHeugF45RIg79QW6V20abMf4/iRxqn0HBl/39W2Y3TVdfuc8frbw9Kfg+L7APLlfJYnQJ9UOZ9glwLwC8lj2vv7BBTVe/wT0SeUrfFfuhz6p4eB1e5Np5FDW4GdW2zH+DcNi13+6vYBOZ1qWe/+pL9E+gkZf/8U2zG6a55MDgHMOnvZ7//sed49AHYp17P6poHVFo4JrpQQOBzA7Lb+LgGwAKDaULbG/7EF0Jtuc3f5V1OL82fRx05uI1Bwe6c/JFJvYcL+BwMP2E7SYz8f/qXF31x24/ikl7gXQFmOK+ydVPgiCB399i1VaDCmvb/zBMJjzqjq1WzjT9ErtDh/yA/8RBOSfUZLF3aDc931w7/yr3WZ4LMAbivH/UWA3lU8DFBQDG7v7zwDZQ8AVTUZMrgsjb8uXsLGv9YEeaClYpPUe8bzAiSS42XsrR/YjhKV3+32ldZ+w1aeAcX/lOP+fVLV+z3caqTxEM22+cPPA5CscB6iipEhgyGnnVSGxv856L0PsfGvJSaMwQl/AqTqvyrj7ltmO0nUspI11+w95VuA/m/U9+6dRNUeiGyMSr9nhh7e1t95HqSKpz9QLStr438fG//aosUDftT1Gf+Zq2X/eyq6zW9Fieg7wzLfgOjtUd7W94DGKu4FgMqRbf2xBygLAKo6bPwpUi3rAeP4cHoyvUTG33e+7RjlNk8mhy0bW6YCen+U9+2TrN4NAUKDcW39uQeABQBVFTb+FKkg5/6Mf/EDNPhfsB2jUn499qxCwWROA7A8qns2Jqv3+zofapuHLnnKHgCqImz8KVKqxXf/rkskvy373vue7RiVdP3wyRvF15MQ0dbBmQSQrNKJAHkjbU729wCJwaubqHNs/ClyuQ3uj/snUi/KhPuvsx3Dhp/teeYLojgTEc3MbKjSKfGBgXf6c7/b75N/7gHypo1ARFFi40+RC4PiKX8uE1F46VNtx7DpZ/tMvUegv4jiXo1VvDt4Sz4x6ZN/5qmY122EIYoKG38qi9xG2wk6l0r9XcbfvcR2DNuam1q+D+Cfpd6nmlcChEY//ck/81SFBQDFFht/KgtTKE7+c5mIIqiP3T7/5fDrsWc1A3JOqffJ+ECiShcDFELZ6uRfL+EHLAAoltj4U9m4vtUvACTSC+TAeW/bjuGKa/aecj+AO0u5hwBoqNLVAAWDQZ/8Mw+DBr0FwPEjrYg+jo0/lY0xQMHxd/8QwPMvsJ3CNaEkzgHQXMo96qp0HkDeIHHqkzcO3vLPPDnrrIJCa34MieKDjT+VVb6k9qMy/MS7Mu4PT9iO4ZpfDDvtHYj+upR7ZPyo0rgnSCSP2/JjDwAEMt9OHKLukWF7lqfxf2YJG38qChyf+Q8A8H9vO4GrxMiVAHr8Rayv0h4AAMgbHLLlxwkAUMiTAv0vK4nIXSLALjtBdhsM9OkNpOwukpW+fYEdtov8vvrMEuj9f2TjT0BYKA4BuExE0ahX2o7hqp/tM/Xdb79w028UcnZPrk97gCeAqcIfByHkU1t+nAAA3y88acIqLnuo22S3XSFfPBwYtI3tKGXFxp8+xvUtfwHAT74hIx5YYzuGy8TTWWrkG9jUxnXv4mIR0BJGn8u2fKg7bvlxcQjgkkv+CeBfVhKRc2TsaMjUU9n4U+0J8rYTdM6TP9qO4Lqr9/rS2wo81NPr66p0R8B8iMxxi2/su/njLXc+5ouKIHsMhRz1+WL3fxVj409bUeP+iX8AEMpvbUeIBZUbe3pptU4EVABJ9Sdu/tj7919oSesnqQr4PuTII6q/8V/8HBt/2loYh3f/XiAH3r/Qdow46K+pBwCs6sm11VoAAEBY8I7Y/PuPCgC/f+NfAPBgoBome+8J9Ovb+SfGGGf7U7vCGLz793wO1XZRdvjkvChu6cm1Sa96fz7kgTGbf/9RASDnnJMD8ICVROSG3YfaTlBW7PanDsWhAID3ku0EcaI9bNNSVXosMAAUQt1l8+8/9s9U6F2Vj0OukH59bEcoG3b7U6fiMP7ve0ttR4gTr1f6MQDdXtrhe8VtgatRLpReJy+bmwI+UQD4/RvvA/CelVRkX5WO/bPbn7rExGDdl3qLbUeIk6t3ntyikMe6e50ASFZpL4ABYPKFw4FPFADFYQD9XyupyDpdt8F2hMix25+6RB3f/Gcz3zxvO0LciOpfe3JdtRYAAKCBORL4RAEAAF5SrwcQg+mwFLlXSz5O2ym6aDEbf+qauBQAyRznAHSb92RPrkpUcQEQqowD2igA5Ac/eBfA3IonIut0+UtAcwwOQumMAvroY9AH/sTGn7omJvu+ysg/x+CcYrcEEizryXXVPBEwF2J3oI0CoPiH5urKxiEn5HLQvzxiO0Vpmpqht86D/r3bw35U02LQAyASjyrFMdft/aUP0YOdbv0qLgDyir5AOwWAZH/wjHBJYE3SZ5dCH4vh4ZBhCF2wCOYXv4a+stJ2GqLosfkvxfLuXuBVcb0VhPBOffLW8e0elCDQ7yjkC+jJYQoUa/q3R4EPPoAccRjQUG87TsfWroU+txy66Blgw0bbaYjIRYIXoTisO5dUcQcAACBImmPaLwCyF78YZmf8BsD/q2AmcuukHSIAACAASURBVIQueR76wsvF3QGHDIb06WP9OGDkC9B8Hli7Dnh/FfT1N4FVH9jNRFQpHALoOdUPuruy36vSZdGbFUI9qMN3915K/9vk5TQA1btDDLUvn4cueR5Y8jx7H4ns47dhD4l6a7Sb9ZNX3e0/CophHfZyyMUXr4JgVqUCERFZEY/VIjGYqegmha7uyVXVLG8wsNNhDk9zVymUp08RUfWKQwEgXgz2KnaTJ7qm+9eUI4k7QtOFrQ4kmw184EsAqmCBOBFRG+KwEZAIfwb3kKp0+wtc7ZMAPVHTpX+jZC9+EcCFZc5DRGRHHHoA4HEToB4ykFS3L6rySYCZhLza5SLHy37/OgEeLGcgIiIrNAYHAUE/tJ0gvky621fEoijsGRFFRrwLulwACEQlab4O4K0y5iIiqrw4nAQoUl2HdVRWt9cwV2v7L6Lol5Hr7xx3+n3dGuaQH/zgXQ/mSADrypSNiKjyYjEHwO/2bnZUJPB6dfca0819A+Ig7WvrwLT52j1jp3wL6ME8B8n+4HkVOQ0AZ6QSUfypxqMHAN4/bCeIK/Gwa3evqaYhAF+g/dJ6d98+6T537v+l327+8x5NdEz86PsPAXpBdPGIiCwxcXgvI8AbyUdtp4grhel2AVANzb8A6JXS53t5uucfxk09Yd7wyfkt/77HKx387MXXAuCpgUQUb3EoADy/WSbPy3f+idQmlcHdviTmFUB9Aqu3bfSOf2D81H3vPXDqirY+p6Sljn72ovMBnVbKPYiIrAoKthN0zvPa/AFOXTa4uxcEGs85AEkPQd+0XvPHA6YMmDv69Hs6+tyS9zrwsxf/CILvl3ofIiIrghi8sZbEn2xHiKvzl966M4Btu3tdEIN5oVvyAPRN69971Re2uXfc1G939ZqS+T+6aBaAb4F7VRNRnJgwHnsASPAb2xHiyiTD8T25Lk4FQENCX++fxrh7x0095J7RX1nb1esi2+3Qz150vQL/ASAG5TQREeLx7t9LtMj4B1+2HSOujOoBPbmuEIMCoM7X5m3q8I2HDpg6+K5xU57q7vWRbnecyF70Ww/eQQDeiPK+RERlEcagAPD9ZbYjxJkAE3pyncsFQMKD6ZvWubummvveOXbKL3t6n8jPO5DshYu8lI4VyCNR35uIKFKx6AHw77UdIa6+vfjGvgDG9uRaF4cABEDvlC4Z0JDa5d5xU0/59dizSprBWpYDj+Tii1fJ9v2+AMiPAcRggI2Iak6Qj8EOgKJoSHO5dQ+ZTPJYAN0+CChU9/YBaEzig0H1euT946eOmjdq8ttR3DMRxU3aImedVQDwXc3OutPA3AhgWLmeRUTUbYVW2wk6l0guleHzNtqOEVeemuO1B6f6tTq0NUTaR74hJZfdM/aMy6O+d9mPPJbshfO93ukxgPwU7A0gIheoAkHOdorOifcz2xHi6pvL5jaqyBd6cm3euLEHQO8Uns6kmvqVo/EHytgDsCU5//wWABfoZbN+o6G5UoFjKvFcIqI2BTn3u/99Py8T7r/Rdoy4Snj5EwFkenJtqwNvVesTsur+8Wf0aP5CV5W9B2BLcsmFL3jZiyYa4AgASyr5bCKij8Sh+19Sf7cdIc4Eek5Pr3WhAMgkzS3lfkZFC4DNktmL/urtM3Q/hZyiQLfXLhIR9ZgJYtD9L4Dxv2c7RVyd+9JNnwYwpqfX5wL7UwDTSdxU7mdUZAigLTJ5cghgLoC5Om36wWrkuwocCUtFCRHViHyT7QSdSySXygH3PGs7RmwZ6dJWuG1SoNXyHICkh+D2kVOfKfdz/n97dx5uVVn2D/x7P2utvfcZmVFQS0qJwbHAeNNMMvMt7a00yOGA5VtZpiIOPxkUt74KmhMHtZ/a8OYBNEGcUnvLUvtppaKZA3AwJwRExjOfPay1nvv94+AvJDjj3vt51jr357q49JLDer5eh7Ofez2jFZ0tzZvzJ5WefbJyw4+B6EIAL5vOJISIIR0CeduH/wmg5LmmU0TVBauXHgzg67398zk2fxNgyuH1pWjH2AjAntDll28EUAugltPXflqDTgXoRABHwpJiRQgRYbkIvP17iTdo0oPPmo4RVaT0T8C979vaLbgc0nPwXCnasaoA2BWl5/4NwN8AzOX584eFeXUCgScD9GmAD0EvDncQQvRjOozG4j9455tOEFUzVy3+vGZ8oy/PaLPgDAAHWFGKdqwtAHZFc+ZsBXDPzl/gO+/0sHnHIaHG4dRxz/PHCdifwaMA+qTJrEIIS+XbYN/5bh+1LTlEpyv/Yy3Q6TXuYk+YKVyz+EZC3+bv232z8/9KgbdPeOvhUrQViQJgdztPGXwZu60VCK5acDoxir51QggRMWEA5DOmU3SKifCzimOVS+FtAL5mOk/UzFiz+GwQHdWXZzAD7SEDfSwi+qLc4Y2PU7ok4xCxmldXjCmmMwghLJRtNp2gSy+Xj8ZmVQ2ATr6wfsm3TOeJkvPq60aB6Oa+Pqc9JDCbHQFIOvRoqdqKTQHA6XQlA/9uOocQwjJ+OxBasLKrE3kniXuS/3x5ZeZFM167Zx+DkSJjCi9zFOhuANV9fVabBX9NlOv3uZDpdlulaqjYQkqeBKDMdA4hhEVYA1n7V/6vqJyEQH3k43gE3PCBH7x4p2cqU1SMrM9fSozPF+JZphcAVnjcuOLI7/6jVO3FpgAgpuNNZxBCWCbbbP2Z/+tSI/G8d+Cefutz5RXl80scJ1JmrF56LMBXFeJZDKAlX4gn9Z5HVNLjn2NTAAB8jOkEQgiL5NsB3+4jf3NOCrdXTt7r7zNw8Yz6OlnbtAfnrb1nDEg/hAJtCW8LgNDwJpEkq9tL2V4sCgBO3zgUwBjTOYQQlggDINtqOkWnmAh3Vn0J+c43YxGY/vvC+iVHlypXFJz/j18Oc3T4GIBBhXpmc9704j9klk8644lSthmLAiBEfhJM7tsQQtiDGcg0wvY9/3+sOAJvu0O686UVzPzYzPq6ol4NGxXnrlpWqQLvIQCfKORzm/Nm/75UeCjZ6v8PxaIAIKLxpjMIISyRae449c9i7yVH4NHUYT35IwM06InzV919ZLEyRcFlby0b4Knc7wB8rpDPDTSQCcy9QxIBntaXlbrdWBQAYDn9TwiBjmH/wO7jfpu9aiyq+FLP/yBjoFLq8fPXLj688Knsd/Hae4Zm87knUeDOHwCaDW//q3Dx7vLPTn+n1O3GogAg4CDTGYQQhuXbrb/qN+OWY371ybtv+euJfZXGMxeuXnxSIXPZ7rz6e0cGWj8N4NPFeH5jzuwMcsrVt5loNxYFAINlBECI/szPAtkW0yk6FTgJ/GTASchSn7f2VzHh4RmrF5d8yNiEGWvrjnE4eBHgokz1hmx2+19CIdjxmbdrTbQdiwIAQLdW0gghYijIAZkm0yk6FSoXNw/4KhqovFCPdEC4bsbqJf935vpl8TwAjZlmrK6bCU1PARhRrGYacwSTJ0WUe/jj0yU6+393kS8AGEyQEwCF6J+CPNBud+cfOAksGvjveF8NKPzDiX+oW3IvXbBm6WcK/3BzfvTq0kEz6pfet/N8/6JeWrfD4FERDoHLQ/+HptqPfAGA9FUViMP/hxCiZ/wM0G73dr+ck8L11SdjnSriICVhLEE/N6N+8XVxODp45pq6ryU8/RrART8AyddAq8Hjf6s8fv7X//bdd021H/2O0/MqTEcQQpRYvr1ju5/FnX+LV4WrB52CrU5VKZpzwbisvKJ85YzVi08oRYOFdl593agZqxc/rkGPANivFG025GDsrxARwwGMvf0DRR5aKQkiuw/6FkIUVralowCw2JbkUPyk6kQEJf6IZeBwEH4/Y/Xi3yoOL71l/HdWlTRAL1zyZt1wP0+XgPFjEAq2SKI7TA7/VyXw+oNHTXvFXII4FAD5fAuQNJ1CCFFsrDve+gOLz/cnwqtlB+GX5QXfqt7DHPiKJufLM1Yvvlcprr1lzPQXzQb6VzNeu2cfuMGlvk8/BKHkI7mtgdnDf8rA5xlrfKdYHJ8bphfkAUR+7ktEDDNo42bTKbpEJ2WAT9i9P75LYd76E/5ClUBd1efxire/6Sh78mcmLBq8af8H0pMnm5v1ZqaZq5ccoxWdDfBUoLRv/Lt6twVoMLT/v9LDuscn1RxopPFdRH8EoEMrCngphBDCIrlWIGd3AbM9MQgLq76MFkqZjrI3RxPj6IZ9N2y5cM3ih0LQilxb21N3TTinJGfgzVy1+CDt8GmoX3KWVjjI9NqNQANNBg//KXP4AWON7yIuBUADpAAQIl7CAMg2A6Hhc1o7ocnBMxXj8WAqMkf0D2fgBwr8g7KK8oYZqxc/BsKzWuG5D0YnX19OUwsyxHLx2nuGBhxMBuMEgL6kgVEdO7btsC0Lo3v/mdmKtWuxKAAIeJsLfDOUEMIQZiDfCuTsXui3Mbkv7qo4Fk0qsseQDAKhBkCN0sDI+lzrjDV1K0G0hjWvI6h1GljnurTFUWFrW7vjA8A+20e2tIzcNNAPeRBxOJgdGqQ09mfCOACHABgf6HCkrTPMDGCb4aN/fXas2KkRiwKAwWsB6sXtGkIIqwR5INsEaCtekPYo7yRxf+UkvOAdaDpKoVUCNBmMyUQEgKEA6JChQ0LC6/ieNOy7AdAdN9iBCMSw6eW+S405gm94KUmrz4d+8/m7hzz42bO2m8wRiwIApNaC7d0PLIToQpDr2NoXGDyUvQu+k8SzZWPxm9Sh0DE4QqW/2pwxnQAIGQTlXAPgRyZzxKIA0Mxr5cdRiAgK8h2L/Cye5/edJP5cNhaPSMcfeY15QsbgyX+7ygR8OqQA6Ds3wS/pPGnE4WRDIWKPO27vy7UD2pJP4z1odavwZPl4PJn4lOkookA2W7SspD2gAaeurPvqionTHzeVIRYFAM2Zsz1MX/cqwEeYziKE2IvQ7zi/3891HOpjocBJ4O3Evng0dTjecwabjiMKqCkPtFtWb+ZZXQlACoACeBKAFABC2CT0Ozr8IGPtwr5AJfC+NwR/TI2z9RAfUQBbMvatVGwLMOHM5xZVL510QbOJ9mNTADD0UwS6yHQOIfo1HQCBD4S5jn/a+KavHB+Osx5w/vKH5Lj/92jqkDsg04ex1pQHWi1cZhKEUG3u4HkALjHRfmwKAAf5pzWS7TB4tKQQ/YYOOzp7DoEwBLTf8U+bOnxSIZRqBdFWkPMGWP0VLh6jiY+8/M8v+g1m1NeNA9OF5oKKYmIAmyw+SDKncRYMFQD2jYn0QZievxSgM0znEP1ERO4C+OsoB+vKe7nxmXf7l15utw01w/cJ7XlGazujLcvgvh0Hy6GGH4aU14ywIxqFmqFDjUAzBd1+PAEo9/Yhz/Eo5UENLQOPrASPGwzynL5kFBbYmgE2tNnb1RGAYZXO0fcfefpfSt12bEYAAECDFitACgAhdrFhSxKvW/RiDgBaM4LQRzafQxD0amUWAUgAnChIoKZdMmxoAP4O0G8JTmUSzthhwNEjgVSsPi77hZCBDyyc+98VA8j74QIAXyh127Ga93LHffIJAJtM5xBCdE4pQsJLoLqiCgOqqpFMJNFx+pw9mBlBSxa5F9bDX7gSuK8e1GTxVcTiX3zQRggsK373pM3H0VNWLStMMdsDsSoAaOrUEOC7TecQQnSfoxxUlJWjurIKnmvnrd6aNXJvb0fujpeAh980e5OM6JZc2HHpTxT4Gk7Ynptd6nZjVQAAgPJ4IQALDnsUQvSEoxxUVVSioqzCdJS9Ys3Ird6M8LaXgG3yMWOz9a0UqTotG9I5pW4zdgUAzZ27GcAvTOcQQvROMpFAdWWVdVMCuwrasvB/+QrwZoPpKGIPdmSBFgu3/XWmzceIU/9+b0nvlY5dAQAAyg1/AsDeW0WEEJ1yHRfVlVVQyt6PKB2GyK9YA3ptm+koYheBBjZavOp/bxhA4AfXlbJNe3+6+oAuv3w9gJ+bziGE6L2OKYEqKLL3Y4o1I/fYG8DaHaajiJ02tBGCiF4O2+bT5OM4XbLtJvb+ZPWRSuJyAFtM5xBC9J6jFCrK7V0TAHTsFvAffgOQHQLGNeWBhgh/G/IhvMEvfWJGqdqLbQFAs2c3MHCZ6RxCiL7xXBepZMp0jE7pMES4ZJXpGP1awB0L/6IuF6jzS9VWbAsAAHDSs+5m4GnTOYQQfVOWTMFx7P64CpozwJPrTcfot95rIfhRWva/F20+Pn7qq/eMKUVbdv9E9RGB2AG+D6DJdBYhRO8REcpTdk8FAID/4gZwJmLLz2Nga5bQFJNl3xpAkAsXlKKtWBcAAEDp2W8y4fumcwgh+sZzXbiu3cfx6lADv3vXdIx+JRsC71t82U9vtOfxVTAXfT4j9gUAALhXzl4O4A7TOYQQfVNm+VoAAPDXbgPCGIxFR4AG8E4zQUd01f/e5DQlvvW3pScVu51+UQAAgEJuJoNfMJ1DCNF7nutZfUAQALDWwAsfmI7RL2xo6RgBiCOt+RvFbqPfFACUTmcdJE4CUG86ixCi95Jeye9M6TH9muxALrYdWWB7zu5isC8YMgVQUJS+ZJuCOgGALNUVIqJsXwcAAGFjBtAyDVAsrT7wXgy2/HVGwXm5+G30M5S+bINSdBKA7aazCCF6zvPsvDFwVzrUoPdaTceIpXxIeKeFELNp/49IOpRfMeGMnxa7nX5XAAAAzZv1mgIfA+A901mEED1DIKvvCPgQr282HSF2NANvtzCCGA+uEIBqT18MoqL/X9r/U1QklJ5Trzw9CcArprMIIXrGiUABgK3tphPECgNY10LIBPEd+lcAhqb4+hUTp91Wqvb6LZo7d5NC8osEesp0FiFE95HFFwR9iNsD0xFi5f02oDEmh/3siUPgoWX48YqJ02aVqk37f4qKjNIX7aBxnzgBwFUAYrqhRIh4sXwnYAdfPk4KZVM7YUsmCt/03vEU/KGuOvH+CTVFn/ffVb8vAACApk4NnfTstCZ9AoBNpvMIIbpQ/B1SfacikDECtmYJH8R4NqXcRfPQCveQ5ZPOeKLUbUsBsAvvyrlPKbhHAKgDYr3IVIhI04jAKrCEfLz21Y4ssDHGmykqPbw7hHDAfUec9oaJ9u3fUFtilL50C4Cz+Or5P9eabgdwqOlMQoiP4iic/Vph/4FFNmvKdez1j8B3ulcGJvlPj0ys+WIpVvvvjZSoe0Hz5jyjRgz+DIguALDBdB4hxD/pCByyQ/tWmo4QWU15wjut8RyGVQAGJ/Vdjxw17TiTnf+HWcRe0Dnn+M6Vs25VyH2SQWcBMDJMI4T4J601NNtfAOATA0wniKSGHOGdZpTiMryScwg8NIWZDx01/RzTWQApALqF0um8m55Vp5Abz4SpBDwGQPb4CGFAENr/o+ckXGBomekYkbMtC6xrieebv6cQDErx1+6fWLPQdJYPxa/EKhFO3zBcU3g6M59GwEQAjulMosSYQRs3m07RpeUV5XglAi/M3dXa3oq875uO0anEAQNBNeNNx4iUbVnChpgO+5c5aB1cribde8QZq0xn2ZUUAAXA1103IMzhWGI+HsBxAMYCkBVAcScFQMkxMxpaGq3vJVLfGg8+eKDpGJHxQTthU0y3+lV62FhRlThs+fipO0xn2Z0UAEXA6bQLp3xUqPVoAo8B4wCAKglcDWCABioVKAOghcHNAJoJGM3Alw1HFz0hBUDJZfM5tGfs7imcVALuzImmY0SCBrC+hbAjZzpJcVQn+JXWo96a8DSlrZy3kgLAEmF6wa0AzjOdQ/SAFAAl19jSZP0OgOSxBwJH72c6hvUCBt5pJrTaPZvTa4OTvOyho6Z923SOzsgiQGvQ50wnEMJm2XzW+s7fLU8C/zbCdAzr5UPCG43x7PyVAg9J4mrbO39ADgKyAi9alNQ72g4znUMIW2mtkclmTcfoHAHuVw8CR+GmQoNa8sA7LUDYjXUcDoHLXKwrc/hB5TjLgyBIhFCzm318WWv7RrA9hbA6qU9/cML05aazdIcUADbY0XIwoOR7IcRetGXawWz3yr/EwUNl4V8nGMDmdmBThjpdxJlQCJIu1ycV7nVamxctP+bHux8G/KdvPv/r0XkdrGgJcEgxM/dE0kFmuIsvLJ0wfaXpLN0lnY4FQlJjye7PNiGMyWQz8AO7x4rdqhTom58yHcNaIQPvthCa93Cdr0cIUi6vTxCe8Ty1eNmnz/xDV8978LOnvQHg0G++WDcl46s72wMMKkLsbqtwecvAyurDlh76dfsXBe1CCgALEPMoWY8pxL/K+3lkcnYP/auEG7rfPcxhGfnfo/agY7FfXgMuIUw63Og5WOsQPeUS7ls+oea13j5751D78lNWLrm+2cfMfAivgNG7ZUASr6UqkhPuHf/1PZQ3dpMCwApqhPUbm4UosVw+h7as5Vv+HKfFPevwl7jCO850FgtkAWwnYJsGbSXw+z6rdVuzXFVdjpWs9B8ePHz6lmI0/MDEmsvOfG7Rta3uoPua8upEXYJzhAnAoAQefuiomm8Uu61ikQLACryP6QRC2CSTzVj/5u+53oaEmzgyGJr6leksBuSZ+QYmPOEgXJfXFdt+On6q0Yt7l066oBnAV6Y8t2RcVmFZUx7ji/VeRQAGJXHTQ0fVXFKcFkpDCgALEFAt7/9CdJz019reZvWcP4GQSHrLa3+2aCoAzJhZx/1sCi8A4+RF46Y/YTrIniyfVLMawCFTXlxyRnOAn2Z8FPRWJldBD0zyOQ9MmPbzQj7XBJm1sgKlTCcQwrRsPofG5iarO3/XczclUonPf9j5d6B+1fuD+OLacdOs7Px3tXxCzT2/m1QzcHgS1yRUYS5vSzjID07w8XHo/AEpAKygwXJvgOiXmBm5XA6NLU1oz7SDLVwLQyC4jrsxWZacdtsvbhtZe1fts7t9SWgkmAmMJbVjpi8yHaMn7j+q5opBAxP7DE7g94p6v9+q3EXDcM6Ovn/itKcLGM8omQKwgAJ8+z72hCgOrTX80EfgB8gFeSvXvxIRO67zgYL6k6vCK2/+2W1vdPLl75UsmEEEvNLe3m7FPfY9tfMinhNP/fu9R+ZywdKWPI3tyV+7ag9v5sv0Efcc/r22YmU0QQoAO7SYDiDi68iJR+KA/YtzNn0uGyKT6fwFmDUjCHxks1m0tjYjny/xbinS2frXX7+/y69jbCVF7zPxM7V31T7f3ccz85+JKO73eGwDgm/cNeEcu7dldGHFEae/DGDc1JeXnNWc5VvbA6rq6s8MTPKTj0ys+RL6MHpgq/41d2WpML1gMYAa0zlED0XkMqDwezXQhx9alGe3NPtobrZ3zh4AEp7auv+BA4cX6/lTeJkzsj63CkBcTwIKWdOJi8bX/NF0kIJiVqesXHJbk08/8DWc3X9bKfDgBN/+wMRp55uIVwqyBsAKLCMAQkTUcpoagvB1AB+YzlIMDMyKXecPAET6gaOmnTs4zI8YnMSSchcNSQf5lIu2QUm8MMQJj4hz5w/IFIAttpsOIITovdox09ZeuHrxp5lwJYDvAEgajlQov140dtqNpkMU0/Jjz94KYJrpHCbICIAFGOofpjMIIfpm4bhpm2rHTvthKpHcB4yzAH4UgN3zI5171cvz90yHEMUjIwAWcEBvaBuXQgsheuz6T05tAlAHoG7mqmWDNeVOZqJpBD4e0Vl31aDd8JQbx34nVqvexUdJAWCFTH18RgyFEB+6pWP7WR2Auoteu/eAwAtOIcYUAEcbjtYZTYrOvPXg77xlOogorqhUo7EXphd8AEDuBIgS2QUguwB66cI36sYipG9r4HQCRpvO81E0u3ZszXWmU4jikzUAliDgOdMZhBClsXD09DULx05LLxo77VNKh4cQcBWAd0znAuGh2jFnXm86higNKQAswURPmc4ghCi9W8Z/Z9XCsdPSg8a8dRAUfx6gRQCKcm1u57heO3RWHA+8EXsmawAsoQhPavmxE6LfSlNaA3gWwLNTeNlF+6/JTGblTGfmbwDo8sS6PmohB6fcenBNc5HbERaREQBbzLvsdQD2TygLIYpuOU0Nbxl31h8WjqmZ3pQKhivwfxDRYgDFOIpXA3TGwtHT1xTh2cJiUgBYgkAM4DHTOYQQdvnVqO9mbxk7/TcLx9RMp2yw3y5nDBTkiltmpGvH1jxaiGeJaJEpAItoYLECzjadQwhhp4VHfrcRO7cV/njN3UMcqFMJmA7gc+jdrq5HBo9969qChhSRIdsALcJg0unr3wJ4lOksohtkGyCam320WL4NMJlQm/f7+MB9TecopvPq60Y5TKcDOA1A977ZjDXao0ky799/yRSARTqmAfge0zmE6C7WphN0jRSypjMU221jpr9TO3ba/Nqx0w7Tmsbv3FbY2RHjrytHnyCdf/8mUwCWUcAvNXAZ5HsjIoDZ/q0rzBTpO+x76tbxNasBpAGkz1+9ZJIi/S0CTWDwPoBaB9bLtde4pPbgC3KGowrDZArAQmF6wRIAZ5rOIbogUwDYti2HXDYsyrMLpazMfWrE/tVfNJ1DCNvIFICFlKOuBRCBwVXR34WB/X9NHUWvms4ghI2kALAQXXHZGgI9ZDqHEJ3RmhGG9k8BwMWzpiMIYSMpACxFCvMQ7bvERcz5eQ3blwCQAg8bVinFtBB7IAWApWjerFUAFprOIcTe5HL2D/97Hm0iooIcmCNE3EgBYDGFXBrAOtM5hNiTjOWL/wDAdZ3HTWcQwlZSAFiM0ul2JlxsOocQu/N9jcC3fwTA8Zx5pjMIYSspACznXjl7BYBfmc4hxK7a2uwfVU8k1VvDhlVsMp1DCFtJARABqsI9D8Bq0zmEAIBQA+1t9g//JxPqItMZhLCZFAARQJde2qYUTUVxrgIVokdam33rTwBMJtX6YftWP2I6hxA2kwIgImjerFUM+k/IAUHCoDBgtLXZvzvVc5WcpClEF6QAiBA3PevXAM43nUP0Xw2Neev3/qfKnSeGj6x+xnQOIWwnBUDEOOnZPwWwwHQOLmq2aAAACLFJREFU0f+0tgbWn/ufcFVLqKu/bjqHEFEgBUAEqfSsuQDuMJ1D9B/5vEZzk91D/45D2knR8QccQBnTWYSIAikAIohA7KRn/wiEWaaziPgLQ8b27TnrF/6Vp+jcESMGrDSdQ4iokAIgwpwrZ18PovMgCwNFkeiQsW1rFtriS3+IgIpK76phIwfeaTqLEFEiBUDEOVfOup3BUwA0m84i4iUIGFu3ZhEE9nb+ShFXVCdm7TOiKm06ixBRIwVADLjpOQ8oNzyMgedNZxHxkMtrbNuSsbrzdxwKKlLemcOHV15vOosQUSQFQEzQ5ZevcwZXfAHg201nEdHW0uxj+9YsQosnlpJJtbE6lTpo2H6V95rOIkRUSQEQI3TBBTknPec8pfg4AKtM5xHRks+H2Lo5h+Zm39q9/o5DYXWVt2i/jw3cf9DIMrkpU4g+kAIghmjenD+pEYOPBNGFAFpM5xF2832Nhh05bN2SQ963c5+/UqTLy91HB5e7I4fuWzXDdB4h4oBMBxDFxddcc4AOnFkAzgaQMp0nVphBGzebTtGl8AfToQ8d/5H/xszIZkO0t4XIWny4j+epRs9TD5RV8qUDBgzYYTqPEHEiBUA/wekbhmsE5wK4EMAA03liQTPo/QgUADN/hPDAj8MPNfxcR8efz2tobdc4PxHgOCrnurRBOfSUA33HsJEDXzKdS4i4kgKgn+EFCwbpPJ3GzDUEfM50nkgLNWjTFtMpuhQeefjRjVO/PYg53Cf09VDTeXanyH1fE2/MZiv/OmoUZU3nEaK/kAKgH+P0goM0UMPgrxDoMwCcIjb3CoD/AfCfAKzrhHolDEGbtppO0SUa4A6jm27aZjqHEMIuUgAIAABfd92AMIdjifl4BiYS8CkAQ3r5uAwDfyfwiwz1ouMGf6TLL98IAEF6wV8JmFS45AblfdCW7aZTdEn9vFZ+zoUQ/8I1HUDYgWbNagLwm52/AAA8f/4QBBgdMkYTVDXAlWAMALgaIAdAC8A5AE0M9YEDvAs3WIcg2EjpdLCndhRoA8OuuefeIps3yu/EStkfUghhhBQAYq9ozpztAP6681dBMLChUM8yLtxjjWMVct0m0xmEEHaScwBEien1phMUCgcReLl2sMl0BCGEnaQAECWlQa+bzlAo5PumI3SDesN0AiGEnaQAECXlJrESiMkiAN/+KQB2nL+ZziCEsJMUAKKkaPbsBgD/MJ2jz4IQ0PZPASjSclmOEGKPpAAQJrxgOkBfUS5vOkLXXKedbrnuTdMxhBB2kgJAmPCM6QB9xXn7CwDteatNZxBC2EsKAFFyytMPA7B//HxvmEHZnOkUXSKiR01nEELYSwoAUXI0d+5mBp43naPXfB+w/BAgJoKqVHeYziGEsJcUAMIIAj9kOkOvZex/+0fSe4fmz7f/qkIhhDFSAAgjlOOuQES3A1ImYzpC15TzM9MRhBB2kwJAGEFX/J+3CPid6Rw9RdkcYPsJgI4K1eDUTaZjCCHsJgWAMEaDbzedoae4rd10hK4lEispnbZ/m4IQwigpAIQxDvKPA3jbdI5uC0JQ1vJ+lQiUKvuR6RhCCPtJASCMoXRaA3yr6Rzd1toGsN3LFjjpvU43pP9uOocQwn5SAAijFPJ3AHjPdI4uhSHI+uF/gkom5O1fCNEtUgAIoyidzjJx2nSOLjW3Wr9ngcu8tXTTtc+aziGEiAYpAIRxztiD6gCsMp1jr/wA1J41naJzBFYp7zTTMYQQ0SEFgDCOpk4NNXARLH3HpsZm6+f+qaz8Prphvsz9CyG6TQoAYQUvPfv3AP7bdI7dUXsGsPzmP/acdgxOnmU6hxAiWqQAENZQyF0MYKPpHP9foIHGZtMpOkeAKkudI/v+hRA9JQWAsAal041MdI7pHAA6hvwbGgFt99A/ylIP083zl5iOIYSIHikAhFXcK2c9BuAG0zmotQ1k+dA/Et4WWlR2iukYQohokgJAWEchN4uA35pqn3J5oLnNVPPdwo4KyaVjCGnLLyYQQthKCgBhHUqnNSFZA/BbJW88CIHtjXav+iewqkieTotu+IfpKEKI6JICQFiJ0hftUI7zNQBbS9ZoGIK27gC0xS/VBFBF+SV083XLTUcRQkSbFADCWnTFZWsU9JcAbC96Y5pB2xqAMCx6U71H4LLyG2nhgptNJxFCRB+ZDiBEV/jqBRO1xhMABhSlAa07Ov+8X5THFwpXlP/CqV3wPdM5hBDxICMAwno0b/ZKpfhEFGM6IBKdP4Eqyq6Xzl8IUUgyAiAig//rv0bp0H0MwNiCPDAIOzr/ICjI44pCEVNl+fl08/zbTUcRQsSLFAAiUnjBgkFhDg8QcFxfnkPZHLDD8oN+XCdPZWVT6ZZrHzYdRQgRPzIFICKFZs9ucJA7ER2HBfVquT61tALbGqzu/DmReJcGDzlQOn8hRLHICICILP+qaycrVnUA9u/WHwhDYEeT5Sf8Eaii/NdUO/9000mEEPEmBYCINJ4/f4jO4zaATtv7FzGoPQs0tdi9xz+R2E7J5Bl0yzW/Nx1FCBF/UgCIWOCr539Ba6oFcPhHfsMPQI3Ndl/pq1RI5ak7aOGC80xHEUL0H1IAiNjgZcscvfqt7wNIIwz3QXNrx5u/rcf6ElinUn92qqqn0vy5m0zHEUL0L1IAiNjhRYuS+s33byPfnwY/SJrO8y+U0pRMPo2EczbddO0603GEEP2TFAAitnjKFEfvf9A85INzKecPBQyPBHhuKye8x5SXuoBuTG8xG0YI0d9JASD6BZ5xyWdZO1ew70+mICwvWcOOE+iE95zjetfSLdf8T8naFUKILkgBIPodPn/uJE36ewiDyRSEH0MYugV7uFIaCXcDKfcZeHQ33TT/iYI9WwghCkgKANHv8WVXHIqs/1UwPsNaj2atR0CjklgnwKzATGAmEDETMSmEDMcnRRko2kSK6jXob8pznsFN3l8IaYv3GgohRIf/BVx9g+xkv9RMAAAAAElFTkSuQmCC;" parent="Nd245YbIvRQRNsEbv2v5-75" vertex="1">
          <mxGeometry x="21.25" y="-10" width="57.5" height="57.5" as="geometry" />
        </mxCell>
        <mxCell id="Nd245YbIvRQRNsEbv2v5-76" value="" style="shape=image;aspect=fixed;image=data:image/png,iVBORw0KGgoAAAANSUhEUgAAAgAAAAIACAYAAAD0eNT6AAAABHNCSVQICAgIfAhkiAAAAAlwSFlzAAAOxAAADsQBlSsOGwAAABl0RVh0U29mdHdhcmUAd3d3Lmlua3NjYXBlLm9yZ5vuPBoAACAASURBVHic7N15fFxXeTfw391mn9HMaJctW/LuOIuzJyQ4zuY4IWmAAH0JBQIN+1agQN/St5SWLhRKS0uBliUBCm2BQiFxNggJgSwQskBiJ7ZlWbZlSdau0exzl/cPx1m9SHPvzDl35vf9fPwBgnXPkzujc5577jnPAYiIiIiIiIiIiIiIiIiIiIiIiIiIiIiIiIiIiIiIiIiIiIiIiIiIiIiIiIiIiIiIiIiIiIiIiIiIiIiIiIiIiIiIiIiIiIiIiIiIiIiIiIiIiIiIiIiIiIiIiIiIiIiI5KWIDoCIiGixnJv6kiaKb3MU5VoAawC0i46pekpFgXPIcZSDUJzHVMX5sTYX+5ny/oFSTVut5cWJiIi8Vrq55/UKnC8ASIuOpYamFSif1iPqvyivGy7UogEmAERE5BuVm7s+7ED5DJpk/FKAg1CdNxhvGvt5Da5NREQkv8o3u69wbNwGQBUdS30pFTjO+wNvGf2yl1dtsptIRER+5HwXmmPjc2jKccsxoOBL5Zu73uXlVZvwRhIRkd+Y2c6LAJwkOg6x1M9XvtF1sWdX8+pCREREtWIr6qWiYxDPMeAo33K+uzTsxdWYABARkfQUBctFxyADB1hi5u33eXEtJgBEROQHjugAZOHA+ZhzU1/I7XWYABARkfQcB/tFxyCRtKUWXa8FYAJARETSU1Xnp6JjkIntqNe4vQYTACIikp4eHrsPwHbRccjDOdPtFZgAEBGR9JTXwVKgfAiALToWSXS7vQATACIi8gXjhpG7FCj/V3QcclC63F6BCQAREfmGccPI3yuK8iei4xDPMdxegQkAERH5ivHmkU8zCXCPCQAREfkOkwD3mAAQEZEvMQlwhwkAERH5FpOA6jEBICIiX2MSUB0mAERE5HtMAhaPCQARETUEJgGLwwSAiIgaBpOAhWMCQEREDYVJwMIwASAioobDJODEmAAQEVFDYhJwfEwAiIioYTEJODYmAERE1NCYBBwdEwAiImp4xptHPg0H/yY6DpkwASAiooZXvmnJRih4jeg4ZMIEgIiIGtrhwd/+KYBW0bHIhAkAERE1LA7+x6aLDoDc2/ydkTYlZl6gaNrphmGsV1SlQ9O0FDSlRdO1uKZrEU3XdcBRVF3TAEBRFUU7/F9hWxZs2wEAWBUTcACzYsIsV1Apm7DKFZhlE+VSBeV8CaV8EaV8EbZlexK/A+QUoHz4fylzgGNDwSxsTCjAlANlylGcKRWYsBVnn2pjbzGk7x3+0MsKbtseGJvvMB1rkwNlA+Csg4M1AFIAkgBiAAy3bVBt6dYhRMq/RLjyKALmbhjmEDR7BipyAAAbUVhqChW9D2V9NQqBM5E3LoCpdQqOnGotkHnKtB55i6ZV5hTRsciIN8VHNv9w70YtELxSD+oXGIZxkhEKtBshI6IHDCEzOZVSBeV8EYVsAflMHvm5LAqZPMrFcr1COOQAQwqwC3CeUKD9tmJbT+z7+KbR4/3QztG5s20HrwecywFsAH8PfEezp5EofB8the8hVHm8qmsUjdMxF3ktMqHrYKlpjyMk0YLzT6P7N2+BVpkVHUrNBG4YddV3seOT1CXfHlyutIbfZOj6lmA0dFIoGkpqhu6LVzZmqYJcJofs9DzmpzPITs8fnlmonwkAvwWcBwHlAUcpPnjn285wzLL2dsfBWxVgfT2DIe/o9ihas19AS/5bUB3XE0AAAFuJYDbyRkzH3gtT7fLkmiRWMwz+ABOAhrHpu0P9gUTo/YFQYEsoGl4RjIZCSoN8Oo4DFOZzmJ/KIDM5h8z4LMw6JgSKAqe3JWSf0hnVTumK4vSeGKIBrW7tk3uKU0EyfxPa5/8GqpOrSRu2EsZ07H2Yir0fDoI1aYNqr1kGf4AJgK9d/OP91wYi4XeEIsFzI8lYWmmUEf8EHMdBfi6HuYlZzI5NIzudgePUr31NUdCfDmFjdwxn9yawvj0CtTluvS8FzAEsmbkRQXN7Xdor6idjJP1VlLWVdWmPvNNMgz/ABMB3Lv7x/mtD8eifxJLxs42QwcdQAOVCGdMjk5gemcT8VKbu7bdGdFywPIkL+lpwUkeEvxQSiRdvRffse2v21H8sthrDaMu/Yj50VV3bpeo12+APMAHwhUu27X9LIBx5bzwVP80Ice75eEqFEqYPTmJqeAK52Wzd22+PGriwrwWb+pNY3Rque/v0nJb8f6Er80EoTl3XjzxH0TCW+DvMRm4Q0z4tWDMO/gATAGltunOgN4j438TS8evCsTBHkioU5/OY2D+O8X1jMMv1HwR6W0K4dFUSV6xOIx5k3lZPyfw30DX3x6LDAAAcavkbzETeJjoMOoZmHfwBJgDSufSW0feEE6EPx1oT/armi0X70rMtG9MjkxgfGhPyiiCoKbigrwVb16RxUke07u03m3jxViyZvRFwLNGhHKZoOJi8CfOhK0VHQi8SzOxA9yNvhVaZEx2KEEwAJLD5HkfXi6OfiKXifxRpicVEx9PI8nNZjA6MYHJ4AnVdOfiMFekwXnlSGzb3t0DlykHPBay96Ju8FKo9LzqUF7CVKIbafoKyvlp0KPSMZh/8ASYAQl1xx1C3rYb/taUteU0gHGBVxToq5YsY3zuG8aGxum4pPKIzFsCVa9O4ck2aWwo9oqCMvoktdVvtv1hF4xTsa70TjsLikKJx8D+MCYAAV9wx1K0Y0W8lOpKX6LrOeyiQWTExuvsgxgZHYJv1nzKOBzS86uQ2/N66NoTEFGRsGK3Zz6N9/lOiwziu8fhfYDr2HtFhNDUO/s9hAlBHm78z0ma0af+e6kxdK6r8Lh2dWTYxunsYhwZHYHl0RsFixIMarju5Hdesa0OQOeGi6fYYVoyfC9XJiw7luGwlisH2h2BqrBgoAgf/F2ICUAfX3DISKQX1byQ7k6/mwC+3crGMgzsPYHxoTMgagXTEwP85pR1b16S5RmAROjMfRyr376LDWJDp6LswnvhL0WE0nWZe7X8sTABq7NJbDn60pSv9yVAsFBIdCy1cIVvA/icGMXtoRkj7SxNB3Hh2N85aGhfSvp9o9jRWjm/0rLZ/rdlKBHs6HuMBQnXEwf/omADUyEU/2nd5PJX4eqI9uVR0LFS9uYlZ7PvdIArzYqaWN3bH8I5zutGbZP54LKncv6Mz83HRYSzKocTfYSb6h6LDaAoc/I+NCYDHzr/jQDqpB7cle9rOa5ba/I3OsR2M7B7GyK4DsAWsD9BVBa85uR2vO7UdAdaGeIm+ycurPtJXlGLgDAy13ik6jIbHwf/4mAB46OJbD7473ZX+x2A0FBAdC3mvlCti8PEBZCbEdCbd8QDee/4SnNbNUhFH6NYYVo2fCqD+6zXcUTDQ8SRMrUN0IA2Lg/+JMQHwwKY7B3pjRuqWlq70aXzob3yTB8ax73eDQuoHKAA2r0zh7ed0I876AUgU/gc9s+8UHUZVRlJfQSb0StFhNCQO/gvjNgFo+vnIS285+NGOjt69yW4O/s2irbcDp1xyOhLtybq37QC4Z88M3vej3fjtaP0PO5JNuPKo6BCqFir/RnQIDSmY2YHu39zgq8HfMlqQWfo60WEsWtNWr7vmlpFIJWLclupuu4gDf/MJhINYf8HJGNszgv3bh+DY9V0bMJmv4M/u2otr1rfhLWd1wlCbMxcPmLtFh1C1oLlHdAgNJzj/NLof+UNf7fO39DhGz/gKSi2nwIz0Ir3rH0SHtGBN2etcfOvwK/TOlsl0Dwf/Zte1sgcnb96ISKL+h/w4AH781CT+6NYBDM0U696+DALWoOgQqmYwAfCUH6f9LT2O0TO/hlLLKQCAmb4bMb3mw4KjWrimSwAuv2vs65193beG4xEe0UsAgEgigpMuOg3ty8Qs6No3U8KHbxvA3QP+6fi8otr1P93RK5rj39hl0wiD/xEzfTdiful19wkKa1GaJgE497bdiat+NvV4e2/nW3hML72YpqlYccYa9G9cBUVABb+S6eAf7z+ALzx4EKbttxXx1VPtnOgQqqbaXMPhhUYa/I+YOOlTCUVR/qTOYS1aU4yEW24dObM73XUw2Z0+TXQsJLeOvi5s2HQagpGgkPbv2DWNj9y2B+PZipD268/PyU79a0o0mkYc/AHAAU4bvPzpr8meBDR8AnDpLaPvSfa2/TrSEuPma1qQaDKGDRedhnhrQkj7u6cK+PBte7Bj3L9PxwsRnH8aqPPiS09ZNoJzT4iOwrcadfB/hmLD2mS8eeTTMicBDZ0AXHb7yOfa+zu+wAN8aLGMYADrLzgZbb3tQtqfKVTw8TuHcM+gfzrHxTjS+cP08QyABXQ/8odMAqrQ4IM/AMBR1A0AIHMS0LAD4+V3HfpB+/LuD/J9P1VLUVWsPHMtlqxbJqT9im3jc784gO/8dlxI+7Xygs6/7OOdyCUNmjnPJGCRmmHwBwDFsdce+e+yJgENNzpuvmlv6Kp7p7e393a8ilv8yAtL1y1D/+mrIeJsCAfAdx4/hH++fxhWAywOfHGRF6fk32qIR2LXzHl0P/o2BDM7BEckP78W+Rk96+ZFDf6HKWue/7+MN4982nGUT3oYmusOoaESgPPvOJCOr27dn+xMnSQ6FmosHcs7sebc9RA1o3TXwAz++p59KAs4zMgrRyvy4uT9OwPg5I1n/7tWmUP3b27gTMBx+LrIT6KqIaXtxf8g+JaRv/BwJmDC7QUaJgHY8oOBjo5Ey+54a1zMS1tqeMmuNNadvwGaLuap9dfD8/jznw6hUPFfEnCsJz87axzjJ+Rn516YvHAm4Nia68n/WfGj/UMPZwJ2ur1AQyQAl3x7cHmkp3MgmoqnRcdCjS3e1oJ1F5wC3RDz5PrkWA4fv2sQ82VLSPvVCGZ2oPuRtx79yc9UfTkL4OR1wHxp96lV5tD9yFuZBDzPcT9/SVlGC0bP/Hq1T/5HHDUBAA7PBLhNAhTHucXNzwMNkABcum14TWJ1145IS+yYN5vIS7FUDOsuOBl6QMzAtWuygP93117Ml+RPAhYy7WvPiam54IY9Ezrm/8fXAc9pwmn/5zvuF9vl64AZPRD4apU/+yxfJwCb7hzobWlPPxqJhyOiY6HmEk3GsF7gTMDAVAF/etcgshLPBCx02teeCQK2j1bs2grsucBx/wpfBzTttP+iVPk6wHEc5d3KG/bPuG3fR791L7T5OyNtLSvjA9FErEV0LLIzFAdhxUHkmf8EAA1A4Jn/XnYUHBlGCo6CvKOg4CioOL79etRNdnoeTz3wJGxTzEC8rj2CT13ej5BkpS4WO+2rdeegthVqHJU37MkwrNGFHR7l0VSy7zTxtP8LrO9JLqgTrdzU9RFHUf4OJ34otxU4HzVuGPPkyEFf9vDn33Eg3dGSHIgmYynRschAAZBSbXRoFtpVGy2qjZRqI/HMn2qfUU0AGVvFnK1i9pk/E7aKCUvDjK36uoirl+YmZrHroR2wBa3QP607hk9cuhwBSWpeVNP5K4YNfc0MoEr+rbIVVHamjvr+/1iaLQng4P+chSYAAFC5uWeLA+cfARwriO2Ko3zQeMvIT7yJzocJwDW3jESQig0182r/uGJjqW5hmWahRzfRodrPPs3XS9lRMG6rOGjqOGBpOGDpyPppGtdjs2PT2PmrpwBHzAB2ztI4/uzi5VAFHGT0fG46f7U9D60rX4OovGONRmFPLv4g0WZJAjj4v9BiEgAAcL4LzSx0bbJt5TJFRS8AOA72q4pztx4eu095HTydavRdj33VvdPbm22fv6446NctrNIqWGmYSKlybgObtlXsMXUMmAaGTA1mk71CmNh3CIOP7RbW/uWrU/jAy5YKa991hTcF0FfNQgmZ3gbmEaegw9yTrLr8SjXV5PykWSr8LcZiE4B6kzq4F9v604m700vaLhEdRz0EFQdrdRPrAxWs0CtVT+OLYgIYNA3sKBvYaeooN0kycGD7EEZ2Dwtr/4Yzu/Cak+s/OeZV568ELOirZ+V7FWArMAeSrisXNmoSwMH/6JgAeOTy28b+qb2/8wOi46glFcBKw8TpRhkrDf8N+sdiAthdMfB4JYDBit7wh6jueWQnJg+4LtJVFQXAh17ei4tXJOvWptedv5ooQ1ue8eRaXrH2JWBnjr/yf8HXarAkgIP/sTEB8MBltx58X3t/1z8rqhyLnLwWV2ycEShjY6CChKTT+17J2CoeqwTwWMnAvNOYn6dt2Xjq/ieRnRYziAU0FX99RR/Wty9spbobter81XQR2pKsp9esljUcO+6+/6qu2SBJAAf/42MC4NLmH+7d2N7f84gRDDTcaNGpWjgrWMapgXLDPO0vlO0AT5sGHiwFMWL590CYY6mUKnjy3sdQLpSFtJ8M6/j81avRGqndN6vWnb+aKkFbOl+Tay+UdTAGe9rbwf/Za/s8CeDgf2JMAFy45paRiNqeGI22RBOiY/FSr2ZhU6iIFbqci53qyQEwaOr4eSmEg2ZjJQLZmXns+MXv4Ag6xW9tewSf3roCeg12BtSr81cTZWi98/VfE2ArsA7EPZv2Pxa/JgEc/BdG9gRA6qdqKx56pJEG/w7NwnWRPG6IZTn4P0MBsFI38dZoFn8QzaFHk7ey3WLFUnEsP3mFsPZ3TuTx1YdHPb9uPTt/OxM4vPiuWL85Mqegw9ydrPngDzxTMfCRP/RV2WAO/o1D2uzk8tvHvtze1/kO0XF4Ia7YuDRUxMmBirw3XBIOgKcqBn5aDGHOljo/XbDBx3ZjYt8hYe1/4IKluHyVNzWzRHb+amvhcJ2AWs0G2MrhKn/jYaDOu1b8MkBx8F8c2WcApAzukv89eE3Hqq4fizp73Su64uCCQAkvC5ah17lQj99VHAX3l4J4sBSE3+dKLMvG9nsfQ2FeTKnboK7gn65ejd4Wd4fuSNH56za09gLUdNG7RMBWYE+HYE2EF1Xhz2uyJwFSfP6LJPqeMgFYpHNv253oaV8yFo6FF19uSyK9uolrwgW0Nviq/lqbtlVsK4QxZPp7mWRuNovt9/1W2HqAla1h/MNVK6teDyBdhTfNhposQU2VoISrSxGdvA57NgR7NgBYcjxsyFoxULrPfwFkuJdMABbpynsmf5Pqaj1TdBzVCioOtoSKOC1Qlu/m+pQD4LFyAHcXQyj6uKDQyO5hHNg+JKz9157cjjef2bXon5P+yU+3oUYrUCImlKAFBCzAAHBk27BtAxUAZQ1OSTs88OcMoU/7xyP6qfXFpP/8j0KWe8gEYBEuveXgRztW9nxakSqqhevVLLwykkeST/01kbFV/G8hjH0+nQ1wHODpB55EZkJMR6oqwF9d3o/TumML/plG6Pwb4d9BFN47d2RPAKRJgS/59uDy1NK2v/Hj4K8qwEXBIt4Uy3Lwr6GEauON0RyuCBfgxw2DigKsPGM1NENM9LYD/OP9w8iXF/YdbZTOvxRfh9GzboJl1K86olsy7A5olM+fjk2aBCC0JHlHIBTwXb8eV2zcEMliU6gkz81sYAqAcwJl3BDL+rJqYiAcxLKT+oS1P5mr4ObHxk749xqt82cSsDiN9vnT0UkxZl26beT9yc7UOtFxLNYy3cSNsSyW6I2zd90vejQLN8ay6PdhPYX2vm7EW8WVt7hj5xS2jx/72N1G7fyZBCxMo37+9FLCE4Bzb9udSHamPiM6jsU6O1DGGyM5xGQ7tayJRBUH10dyODMgptxutRQF6D99NURtc7Ud4F/uH0bZeukMSqN3/kwCjq/RP396IeEJQDrQcmcwGqp9yS2PKDj8vn9ruIAaVFilRVIV4KpwAVeEC3KtaD2BcCyMnjW9wtofzpTw3SdeeGJhs3T+TAKOrlk+f3qO0ARg0y0Hrkr2tJ0nMobFMODgtZE8NoVKokOhFzknUMZ1kbyvDlXqWb0Uoai4chfff2ICI/OHv8vN1vkzCXihZvv86TChCUBLquVmxSfL/g3Fwe9H81hrVESHQsew3qjg+mgOAZ9UXVRUBctO7hPWvmk7+Ppvxpq282cScFizfv4kMAG49JaDH423xttFtb8YIcXBG6I5Xy44azbLdRNvjOYQ9kkSkOpuRUuHuAHoof0Z7P3lZ5u282/2JICDf3MTkgBsvmlvqKU79Zci2l6soOLgD6I59DbQKXWNrkezcH00h5BPkoDlp6w4vDJQkE9PXwfL8ccO3Fp0/s2aBHDwJyEJQGBJ9FuhaNjdySR1oCsOXh/Jo5uDv+/0aBZe75PXAeF4BJ19ncLa32MuxfcKlwprf6Fq2fk3WxLAwZ8AAQnAlh8MdCQ7k6+ud7uLZeDw4N/LaX/fWqpZ+H2fLAzsWbtM2LZAAPhS9joUHXk349Sj82+WJICDPx1R9x5HjSVu0gOG8O2Hx6MAeGWkgD4O/r7Xp5t4ZSQv/RbBQCiAzr7FH9TjlXErhf/OXy6s/eOpZ+ff6EkAB396vroOxJf+6FBnojO5tZ5tVmNLqIh1XO3fMNYbFVwaKooO44R61vRC08W9i//37KuQc+Q6hVtE59+oSQAHf3qxuiYARlT9juxP/2cHyjgnyH3+jeb8YEn6ioF60EBnf7ew9qftBL6T2yKs/RcT2fk3WhLAwZ+Opm6D8SW3HFiS6ExeXK/2qtGnm9gSKogOg2pka6iAZZK/1ulevRSqJm4W4Ou530PBEb8+V4bOv1GSAA7+dCx1ezW69a7xH6d726+pV3uLFVMdvC06X7Pa/qqiIBbSEQnoCBkaDE2F+kwtYdt2ULFsFCsW8mUT2aIJ25F/9bof5WwFX8nGMO/IOxG174lBjO0ZEdb+nyZuwhujtwtrX7bOX/oBVLehxipQIiaUoAUELEADoD3TvVsOYAEoa3BKGpy8DjtrAKacvwOyff5urO9JSr38qC7Bbb5pb6htY898IBSQckG2BuDN0dqc6hfQVbRGg4iHDagL3OttOw4yhQqmcyWUTf8deSu7A5aGb+ZisCXNsUr5Ih7/ySOAoCRwiTaBO9vfD02p//ZXy2jB6JlfRylxUt3bPp5gZge6H3krtMqc6FAO02yoyRLUVAlKuLpZLSevw54Lwp4JApYcyYCsn3+1ZE8A6vKpG92Rz8o6+APAxaGi54O/oijoSITQ3x5HSySw4MEfODxbkIwE0N8eR0ciJLJGTEPq1SxsCsq7KDAYCSHd0yqs/YNWO35SOrfu7Vp6HKNnfEXKzr+UOAmjZ90s/HWAYtjQenIw1s1A68lVPfgDgBIxoXU/c63uHBRD7MOGzJ9/o6pLAhBNxm6oRzvV6NVNnOvxor+ArqKvLYp0NOhqikUBkI4Gsaw1Bp1HD3rqwmAJyyVeD9CzeqnQ9r+Wre/bOj9M+wpdE6AAamsB+poZqK0FwMtXlaoDte3wtbXOvLfXXiA/fP6NqOYJwKW3jL4n0hKJ1rqdagQVB68OFzy9CSFDw/LWGIIebucKGxr62mIIGv4o1+oHCoBrwwVpywVHkzHEWxPC2n+yshKPltfWpS0/df4ikgAlaEFfOQutJ1fbwVl1oHbkoa+YO7yWoE789Pk3mponAOFE6MO1bqNaW8JFJFTvpr0CuoredBRaDZ7WdU1FbyrCmQAPtag2LpG4PkD7cnGFgQDUpTywHzv/eiYBaksZ+qpZV1P9i6WETeirZqEmar9t1o+ffyOpaQJwybcHl0db4/21bKNay3UTpxnefcEVBViSjNRk8D9C11QsTUfhlyOU/eCMQFnaUx5bl7RBN8Qtnbmj8DLM2bWbvPNz51+PJEBNlaAtywiZkofqQFuegdpauwTZz59/o6hpAmC0Rz+nCdzTfCy64uCacMHTLRDt8VBdpuhDhobWmPh92o1CAXBluCDleQGqpiK9VNyJ2UUngNsKF9bk2o3Q+dcyCVDTRWhL5z2/7mJpPVmobd7XRmmEz78R1DQBiCTjV9by+tW6IFBCyuOp/1S0foNyOhrgqwAPtao2zpe0+qPI8wEA4L8L3p8P0Eidfy2SALWlDG1J1rPruaV15zx9HdBIn7/f1SwBuGTb/reE42G5CosDSCg2zg96+26r1eVq/8VSFQVt8VAdW2x8FwZLnq4H8UqkJYpoMias/Z2VZdhR8e4tXiN2/l4mAUrAkuLJ/8W03nlPFgY24ufvZzVLAALhyHtrdW03Lg0XYXi48ltVFMTDhmfXW6jEIgoL0YnpioOLJZ0FaF3SJrT92woXeHKdRu78PUkCFAfasnkx7/xPRH0mNhddTiN//n5VmwTAcdRYKn5qTa7tQrdmYYPHp/zFQrqQgfhIaWHyzimBMjq1+le/O5FWgesAAGBb8QI4Lue4mqHzd5sEqG2Fuq72XywlZB6uQVCFZvj8/agmCcDF20beKWPlv82houdT9RGB/5oi225ECoDNIflmAQLhIKKpuLD2x6xWPFFeVfXPN1PnX20SoBg2tA75DyLTOvOAvrhXZc30+ftNTRKASDT89lpc141ezcKqGmz3CgkszsPCQN5bo1dqciaEW22CXwPcXjq/qp9rxs6/miRAbfe4ul+tqA609oUnKs34+fuJ9wmA46iRZOxkz6/r0qYaFXwxNHGHaAQEtt3INgXkKw6UFpwA3FE4f9GvAZq5819UEqDZUFPyfeeORU0XAe3EswDN/Pn7hecjyKXbhq83RD4WH0WnatWs2IvIhXhcBFgbqwwTnapcswCBcBDRFnEVtcesVuw0ly3477PzX3gSoCZL/nj6P0J1oCaPv5OKn78/eJ4AGOHQDV5f063zQqW6btMj/zsnVPsyqIvV0pES2v59pdMX9PfY+T9nIUmAmpJv3cmJHG/Ggp+/f3ieAISioXO8vqYbccX2fOX/89mCzmwX3XajO8UoI67IVRcg2Sk2AfhlaeMJ/w47/5c6bhKg21Kv/D8WJWwedTEgP39/8TQB2PTdof5IIipuufJRnBEoo5bvIyqWuEGiLLDtRqcB2BisXeJYjXhrAprAswEeLa/FvBM55v/Pzv/YjpUEqDG5vmOLoUZfGDs/GjprLwAAIABJREFUf//xNAEIxkIfgETvpRUAGwO1/QUrVsS9Ky4JbLsZnGGUa39c5mIoClraW4Q1bzkaHiodvXNn539iR0sClIj/nv6PeH7s/Pz9ydP+zYgEtnh5PbdWGWbNy7vmy+J+gXMl/3YefpBQbfRJdlJgor1+59AfzUOlDS/5Z+z8F+7FSYAX5XVFORI7P3//8jQBCMVCK7y8nlune3jc77Fki6aQd/G24zABqIONAbkWA8bTCaHtP1pZ94L/zc5/8V6QBAR8/DsctPj5+5xnCcAl3x5cHoyEpTmnNqA4WFnDxX9H2I6DTKH+7/EyhQoXAdbBWt1EwMOzI9wKJyJC1wHsrix7dh0AO//qHUkCoMvzynTRNPDz9znvZgCSwRskev2PtYZZtzPep3Ml1HOIcBxgKuu/rUN+pCsOVkv0GkBRFMRS4k4HtKDid+XVHPw9UIqvA1SpVpksjqby8/c5z759wVDA+4PDXdig12/qtmzamMnVb0CezpWE7j5oNrXcRlqNeKvY1wCPmKdy8PeMRE9Ni+bj5IUAePgJBiKh9V5dyy1DcdBv1PepbWK+iEIdVuUXyhYms/4pG9oIVhgmjLrO8RxfTPA6gF8Hr+Hg7xFbFVfd0S1bFTcTRd7wLAEIRUJilyc/T59u1W36/wjHAQ5O52r6ZG5aNg7O5sFX//VlwEGvRAcERRNiB42BeZ5C6RVbFbet0y1LEZuIknueJACX3XbwdC2gSzMftEoTM2Vr2g6GZ/Iwa5AEVCwbB6Zrc206sVqcJFktPWjACBrC2p8rmpgtyHM//Kys9YsOoWoVfaXoEMglTwZt23Fe4cV1vLKyztP/z1eqWNg7mfW0PkChbGHfZBYlU56n0GazQrJ1ABHBswB7Z/kaygtlfbXoEKpWYgLge54kAAEjUN1h4TUQV2ykalz850Qs28GB6RwmsyVXW/WOrPbfP52FaXPeX6R21UZMohPbwgJPBgSAfdNMALxQCJwpOoSqFYyzRYdALnnyMk8LGetO/LfqQ5Z3tY4DTM4XMZsroS0eQiJsLPj43iO1BaayXO0vkyWaiZ22uKn354skjl2Tvx6GOAPgibxxIQ7vBJAnuVwYBQV5nvuoSp4kAEYg0OnFdbzQq8mRABxh2g7G5goYzxQRC+mIBHQEDQ0BTX02IbAdB2XLRqliIVcykSuJqS5Ix9erWdhZkSMBCMfCQts/OCdXhUS/MrUOFI2NCFUeEx3KohQCZ8LUOkSHQS55kgAEwwGxvdHz9Ei0WOv5jjzVi6gaSN5YKtF3KxAJCW3/UI4JgFfmIq9FaM5fCUAm9FrRIZAHXK8B2PKDgQ5ZdgAoADoEv/+nxtWp2tKUbQmEAtA0cb92M/kKSiZnqbyQCV0HWxH7SmcxbCWCTPiVosMgD7juQSq6PC+CkqotVd12aiwBxUGLRAlmICLu6A0HwDhnATxhqWnMRt4oOowFm43eAEtNiw6DPOA6AVA07XQvAvFCp2Tv/6nxdKryfMdEvwYYzzIB8Mp07L2+mAWw1RimI+8WHQZ5xHUCoOuaNDsA2iV6OqPG1KbJ8x0LCZwBAIBDWa5n8YqpdmEq/mHRYZzQZPQjMDVp1nyTS64TAFXXurwIxAtJJgBUYzJ9x/SA2B0JmaI8iyIbwXTkXSga8p6xUDROxUz0baLDIA958ApATXkRiBdk6pypMcn0HROdAMyXmAB4yVEMjKS+BluNiw7lJWwlipHkv8FR5NgGS95wnQBoqirNIUAyLdCixsQE4DmZkjzrIRpFWevHaMsXAEUTHcpzFA0jqX9DWV8lOhLymPsEwNCkOc8yLlHnTI0pIdEuEyMg9lQ+JgC1MR+6CmOJvxcdxjMUjCU+i2zwCtGBUA24XwOgaVIsXQ0oTt2PAKbmoysODEnKtuoCTwQEuAaglmYjb8Joy7/AUQT2aoqGsZbPYDbyB+JioJpyPwOgaVKMu2GJnsyoscnyXdMMsb962TJnAGppLvJ/MJL8Omw1Vve2bTWO4dQ3MBt5c93bpvpxX0pMVaSoAhiRpFOmxheW5FRARRVbl5AnVNbefOhKDLXdXdfdAUXjVAy13c1p/ybgxSJAKaqjsgIg1UtQklcAqio2964wAaiLsrYC+1rvwqHEX9d0NsBWwpiMfxT72m5HWeuvWTskD/c9iLLAM25rTKI1s9Tg5Eh5JZgBsJgA1Iuj6JiJvh2DbQ9iOvpOT6sG2koE09F3YbD9YUzGPgIHAc+uTXJz/RJRWegh9zWmSREFNQNdku+aInwGgLtu6s3UujCe+CtMxT6IRPEHSBS+j3D5UWDRs1IKCoEzkQm9Bpnwq2HJU86F6siLBMCLOFzTJJmWpcYny3dN9Ns3k2sAhbHUNGYiN2ImciM0ewLR8v0IlX+DoDkAw9oHzZ6CaucAALYahaW2oqItR0lfhWLgLOQCF8BS2wX/W5BoUqzgJyKi6lhqOzKhVyIT4hG9tDiu5xAdSRYCWdKc1E6NTpbvmi34d0/nwhsiX/MiAZAiA+B6JKoXU5LvmiP4HbwheA0CEbnj/jfYkSQBEB0ANQ1JJr2Ez77pXHlL5GuuEwDLkqM7LDnsjKg+ZPmu2cJnAOS4D0RUHS9mAKTYC5SXpFOmxifLd42vAIjIDde/waZlV7wIxK2CJJ0yNb6iJN81U3At/liQCQCRn7n+DbZNs+BFIG5VHAU8m4xqzXQUVCTZBWCWxebeiSB3ERP5mfsEwLKyXgTihYzNJxKqrTlJnv4BwBKcAMSZABD5mvttgKYz60UgXmACQLU2J9F3rFwWO+eVCMlzL4ho8TzYBWDNeBGIF2Yk6pypMcn0HeMMABG54cUrgENeBOKFWYk6Z2pMMs0AcA0AEbnhfheAaT3tRSBemJCoc6bGNGHJ8x0r5ktC2++MGULbJyJ33PdmFTziQRyemLBYnJxqa9yW5ztWzhWFtt8Z57nxRH7m/hVAXnnQi0C8MGOrKEu0SpsaS9lRpHoFUCqImwFQAHREOQNA5Geue7N7r++ZNMsVKaoBOgDGJeqgqbEcslVIUfcaQKVYhm2J+7VLhXUENP6uEfmZJ7/B5UJFimJAAHDQ5MIkqo0DEn23SnnB0/+xoND2icg9TxKASrkszU6AA1wHQDUybMrz3SpkxebcS1r4/p/I7zxJAMySucOL63hhvyXPUxo1DgfAsETfrcJcTmj7/amw0PaJyD1vEoBy5QEvruOFnK1gmusAyGNTloqcRAtM85m80Pb7UnwFQOR3noyUVrl0uxfX8coeid7VUmMYMOVa8Z7PiJ0BWJ4KCW2fiNzzJAG491X9j8uyEwAA9kjWWZP/yZRUVkplVEriqgCmwgaSIXnuBxFVx7O58lKuKM2hQEMVTZojW8n/KlBwQKIFgPk5Tv8TkXveJQCF0navruVWBQr2SvTERv42UNGlSiiz0xmh7a9vjwhtn4i84VkCUC6W7vLqWl7YUeZrAPLGjopc36X5KbEJwEmdUaHtE5E3vFsubzs3OY4sddKAnaZcT23kT6ajYLdEs0mO4yA7My+sfU1RsLaNMwBEjcCzBOBn1/QeLOWKYsuTPU/ZUTBQkafjJn/aaeqoyLT9by4Hy7SEtd+XDiFscJstUSPw9De5mCsMenk9tx6vsFoZufN4Wa7vkOj3/ye1c/qfqFF4mgCUC6U7vbyeW3squlSnt5G/zNqqdItJ5ybmhLZ/WjcTAKJG4enoaE8XPw+J1gE4AH7LxYBUpcfLAWlO/wMOv//PTIpLADRVwSldTACIGoWnCcDP3rBiX24uJ3aO8kUeLQcg7o0p+ZUJ4DHJXiHNT2VgVUxh7Z/UEUE0IE89BCJyx/P58WKu+Guvr+nGvKNiu2TvcUl+T5YDyNryLP4DgLlDM0LbP3NJXGj7ROQtzxMAq1C5yetruvWAZFO5JDcHwEMSJo2z40wAiMg7nicAP726+7/KxbJUs+4TloZByRZzkbwGKjomLLmmukuFEvICjwBujxro4wFARA3F+yXyimLnZud/5/l1Xbq3GOIsAJ2QA+C+knwD3fTwpND2X97fwrJaRA2mJnvkStnyl2pxXTdGLI2FgeiEdlUMjEj29A8A0yMTQtu/cHlSaPtE5L2aJAA/u7r7a+VCWdxy5WO4t8RZADo2B8DPi/KddFfKFZGdyQprvzMewOq2sLD2iag2alMl5/BrgMdrcm0XxiwNT7IuAB3DbysBHLLle/qfGhE7/b9pOaf/iRpRzcrklQrlf67Vtd24uxhCWaLa7iSHsqPgnqJ87/4BYGpY7PT/pn5O/xM1opolAD97Rc+3CtlCoVbXr9a8o+KBknzTvCTWfaWgdPv+ASA3mxW6+n9Vaxj9aTkTIyJyp6aF8vMz2Vtref1qPVgKYopnBNAzJmwVD0uaFE7sGxPa/pbVaaHtE1Ht1HQULDiZD1uWVCUBABwu87qtEOaCQIID4LZ8GNKtWAVgWzamBG7/C2oKLupvEdY+EdVWTROA+65YdSA7PS/VEcFH7DN1PCZhtTeqr0dKAey35NweOjU8AVNg7f9N/UnW/idqYDWfB89n8v9Q6zaqdXcxxOOCm9isreJnEhb9OWJc8PT/FWs4/U/UyGo++t1z9ZIvFjJ5cZuYj6PoKPjffBi26ECo7hwAPy6EUZJ0R0h2Jovs9Lyw9te0hbGuPSKsfSKqvbo8/man5r9Wj3aqsd/SuSugCf2iGMQ+ic+HGN09LLT9605uF9o+EdVeXRKAkeVTHy0XypV6tFWNn5dCOCBh+Veqjf2mjl+U5Z36L+WKmBmdEtZ+ZzyA85YlhLVPRPVRlwRg+4YN5czE7LZ6tFUN2wG+n49i3uF6gEaXtRX8IB+GLfEWkNGBg3AccQG++qQ2aIqcr0aIyDt1G/EUp/Bus2JK2+1mbQXfz0Ug36ZF8ortAP+Tj0id6JmlCib3HxLWfktIx2WruPiPqBnUrSe8c2vf6Nz4zE/r1V41hi0NdxZ46Emj2lYMS7vl74iRgWFYlrhlqddtaEdQ59M/UTOo66OQk8n8gVmuSL3o/pFyAA9yUWDD+WUpiMclr/tQKZUxPjgqrP1U2MAr1rUKa5+I6quuCcBdr141Pjc+d1s926zG3cUQnqzw1MBGsb1i4F5JD/p5vpFdYp/+X3tKG5/+iZpI3V+GlrLZN5aLZalftTsAfpyPYEDibWK0MHtNHT/OR6Qv+1wpljE+JK7wTzqs44o1fPonaiZ1TwDufVX/bGZ85vv1bnexLADfy0ewn0mAbw1bGr6bj0hZ5//Fhp/eD1vg0/8bNnYiqPHpn6iZCFkOfXDp1JuK2UJRRNuLYToK/jsfwQhrBPjOQUvDd3JRlCWt9Pd8+bkcJvaJW/nfnw7hstUpYe0TkRhCEoDtGzaU5yam/0xE24tVdBR8KxfFEGcCfOOAqePbuai0ZX5fbOiJQaH7/t9xdg/3/RM1IWEbou++auk/ZKYyYk87WaCyo+A/8xEMMgmQ3pCp4zv5iG8G/+mDk5ifnBPW/gV9LTi5KyqsfSISR2hFlPnZ+esdW+pdgc8yHQX/nYtiB3cHSGt7xcB/+mTaHwBsy8b+HUPC2g9oKt56Rpew9olILKEJwM+vXnrP7Nj0/SJjWAwTwA/yEdxXZJ0A2fy6HMAPfbLg74iRXcMo5cQthXntKW3ojMtdG4GIakd4TdTp0uxVxXyxJDqOhXJw+PCg2wpy15NvFhaAWwph3FkIS7/V7/kK8wWMCDzxr7cliNecwhP/iJqZ8ATgV1etzsyOzLxP4BqoqjxSDuCbuRiytj+mmxvRvKPiW9mY9BX+XsxxgL2P74ao11+qArzvZUtgqMJ//YlIICl6gJ9d0/OVufHpHaLjWKwDloavZmM8SliA/aaOr/j03o/vHcH8VEZY+69Y24aTOrjwj6jZSZEAAEC2NLO1XJC7QuDRzDsqvpmL4b5iEP5YzuhvNoAHSkF8Kx9FzoezL6V8CQd27BPWfkfMwJvO6BTWPhHJQ5oE4L4rVh2YHZn8oMj90NWyncPrAm7OxTBtS3NLG86creKbuSjuLoZ8uf7CcYDBx3bBMsXkuaoC/NHLehE2+B0lIokSAAD46dVL/mVudObXouOo1kFTw9eyMTxaDvhqQZrsHAC/KQfwb9kYDvi4FsPorgPITIjb8//aUzpwajen/onoMKkSAADQ8qWL85l8TnQc1So6CrYVwvhmNooJzga4NmOr+I9cFLcXwr4p7nM0udkshnfuF9b+qtYwXn9ah7D2iUg+0o1Qt1zTk5+bmPl9y/LdcoAX2G/p+Op8HPcWQ74pTCOTsqPg7mIIX56P+74Ms21ZGPjNTjiC3lsEdRUf2dQLXeX3kIieI10CAAD3XL1029TwxJdEx+GWCeAXpSD+NRvna4EFcgA8UTbwr9k4HigFfVXY51j2Pr4HxWxBWPvvOW8JliRYvIqIXkjqR4Kr7p16ItmZPll0HF5p1yxsCpaw3qjIfeMF2Wvq+GkxhDEfbu07lrE9B7Hvib3C2r/2pDa87exuYe0TNbP1PUmpu3qp51a1+dK5uXB2JJqItYiOxQsTlob/yUfQo1m4KFjESsNs+kTAATBQ0fHzUgijDTTwA0B2OoP924eEtb++PYq3nMla/0R0dNKPPy//0eCpXcuWPmqEjMYaHQCkVRtnB0s4I1CWOxOrAQvAjrKB+8tBTDTYwA8AlVIZT9zzOCrFspD2U2EDn79mFdLhZvtmEclD9hkAqYM74pJtI+/sWN75JVWTcsmCazHVwRmBMjYaZbSojV1OaNZW8XglgMfKgYYto2xbNnb88gnkZuaFtB/UFPztFSuwpj0ipH0iOowJgEcuu33kc+3Luz+o+CbixVMArNBNbAyUsUY3oSuNsWzQdBTsNHU8Xg5gr6k39GJIxwEGHn4a0yOTQtpXFeBjFy3DBcsb4q0Zka8xAfDQ1p+M35le2r5FdBz1YCgO1ugmNhgVrPRhMmA6CgZMHdsrBnaZOswm2Qq5/8m9GB04KKz9PzyrG6/a0CasfSJ6DhMAjzXazoCF0AEs102s0k30GxW0S/qaYNJSscc0MGDq2G/qDbGFbzHGh8aw9/EBYe1fsSaN952/RFj7RPRCsicAvlshlN+bOVvT9aF4a6JpTjQxAewxdewxdaAYQlRxsFQ3sUyzsEQ30anaCNR5hqDkKBi3VQybOg6YGoYtHbkmeco/mpnRKQz9do+w9s9blsC7z+sR1j4R+Y8ve+zN3x2PJXpCe2Otcc514vCHmFRtdKgW2jQbSfW5PwnFqfr1gekoyDgKZm312T+TlopDtoY5W23od/mLMTcxi10P7YBtiZmZ2dgdw59fuhyBBl0kS+RXss8ASB3c8Wz+zkhby4r4QLSlMWoE1JIBB2Hl8J+Q6kAFoAHPzhqUHQUWDh+1W7QVFJzDf1iu6MSy0/N46oEnYQs64W9dewSfurwfIZ7wRyQdJgA1dMktB5YkO1t3huJhHnFGdZefy+GpXz4BsyJmtUN/OoS/vWIFYoHGq6NA1AhkTwB8/djws2t6D87vnzq9MJ/Pi46Fmkt2Jit08F/TFsbfcPAnIhd8nQAAwE9e07s7M5pdkZvNzoiOhZpDZiqDpx8QN/hv6IzgU5evQJyDPxG54PsEAADuvrbz0Nze+TXZmfkp0bFQY8tMzGHng9thVcS88z+1O4pPXtqPSKAhfnWJSKCG6UXuvb5nMnNoatX8VOaQ6FioMU2PTuHpB7cLW/B3/rIEPnlZHxf8EZEnpF6gUI0N27cHlk90PdJsxYKotib2jWHw8T2Ha/0KsGV1Gu89rweq2nC/skQNS/ZFgFIH58bldx36QdvSjlc18tkBVB/DT+/Hwaf3C2lbAfD6jZ24/rQOIe0TUfVkTwAadi7xJ1s6X31o38hnRRVnIf9zbBsDD+8UNvgbqoqPXNTLwZ+IakLq7MQLm7cNv6N9SfsXjSBXTdHCVYpl7PrVU8gKOtI3Hdbx8YuXYy2P9CXyLdlnAKQOziubbxlZ19IWfyCajKVEx0Lym5/KYODhp1EuloW0v6Ejgo9dtAzpiCGkfSLyBhMASWy+aW8o3Je4J9WVPk90LCSv8aExDP12DxxBi/22rknjXef2QONiPyLfYwIgmctvH/tyurftHZrGIir0HNu0MPj4AKaGJ4S0HzJUvO/8JbioPymkfSLyHhMACV3yo/2bEp3pWyMt0bjoWEi87EwWex7ZiWK2IKT9NW1hfPjlvViSCAppn4hqgwmApDbftDcUWha7I9XdepHCvYJNa2zPCPZv3wvHrv+UvwLgmvVteOtZXdA55U/UcJgASO6ybSMfTPW0fsYIsbB6MynlS9jzyC7MT80Jab8jZuDDF/ZiQycPsiRqVEwAfGDLDwY6tFTqR8nO9HmcDGh840Nj2L99r5B6/gqAK9ak8dYzu1nPn6jBMQHwkc3bht+R7mr9fCgS4svYBlTMFbD3sQFkJsU89ffEg3jfy5bglC4+9RM1AyYAPnPubbsT6WDylmRXepOi8gmtEdiWjZFdwxjZfUDIu/6ApuK1p7Thtad08F0/URNhAuBTF39/77mRjuR3WtqTK0THQtWbGZvGvicGUcoVhbR/Tm8Cbz+7G13xgJD2j8iXbTx8MIPfjuYwNFPAoWwF2bIFS0BCRETPqgCYBZwhKMrjgPMzXVG37fzYhXUpQcoE4AQu2zbywXh78q/D8XBYdCy0cMX5PIae2Iu58Rkh7fe2hPC2c7pwRo/YnaYHMyX8zxMT+PnQLEomB3siH8g7Cv4Tqv3pwY9etLuWDTEBWIAN27cHeg623pxsT7/OCBncLSCxcqGEgzsPYGLfISHV/NoiBl5/WgcuW52CJnBFacly8B+PjeFHT03B5lM+kR9VAOWfrFLlz4f+4uKaTGEyAViEzd8djxktzpeSncnrebiQXMxSBaMDBzE2OAIRJ0C2hHS8akMbrlnfhqAm9tdqZL6Ev75nH/bNlITGQUSeeMi0nVfv+/imUa8vzASgClt+MNChJFpuTrS3bDUCBu+hQGa5gpHdBzE+OAJLwMCfCOq47uQ2XL2uDUFd/FdhcLqA//eTIcwVTdGhEJF3hm3becXej2/6nZcXFd9j+diWHwx0ONH4PyRaE68LRkNiV3k1mVKuiLHBEYwPHYJt1X8/f2c8gN9b34atq1MI6nJMBo3Ml/CR2wY5+BM1pmFLM88e+ujFY15dkAmABzbf4+h6cfQTsVT8A5GWGM8XqKHcbBZje0YwOTwBCHjHv7I1jGvXt2FzfwtUibb0lS0bf7xtDwZnxOx2IKK6eKQU1F4+/KGXeXJwiTw9WIO4ZNvIO0Px0B/H04mVPHHQG5ZlY/rgBMaHxpCdrsvumBcI6gpe3pfE1jVprGuP1L39hfjab0bxw+2TosMgohpTHOUvB/70wk94ci0vLkIvdcktB5ZogcDfRVPxV0fiYTlHDckV5vOY3D+O8aExmJX6T2v3JkO4dGUSV6xJIy7xUREHMyW860e7udqfqDlkLc1c7cWrACYAdXDZLSPXByLBD0RS0TMC4aAuOh6ZlXJFTI1MYmp4Avm5XN3b74wH8PLlLbioP4n+dKju7Vfjn+8fxl0DYuodEFH9KY7ypYE/vfDdrq/jRTC0QI6jXrxt5IZgJPieeCp+Gk8gPKxUKGH64CSmD04iO1P/Kf72qIEL+1pwYV8L1rb5a7ImX7bxxu/tYJEfoibiADlDVbrdVgzk02g9KYp9D/B1HP6Di28bvUjX1Q9EYuGLIi3RdLOcPeA4DvJzOcyMTWN2bBq52Wxd29cUBf3pEM7pTeCcpXGsbA37NhN++GCGgz9Rk1GAqGnjKgD/7eY6TAAEuueq7p8D+DkAbLpzoFe3w+8PhkNbQtHw6lA0FFYa5Gxix3FQyOQwPzWPzMQs5iZn63oUr6YoWJ4K4aSOCE7rjuG0rljDHMX729H6vyYhIhk4l4AJQGO474pVBwB85Jk/uOSWA0sUVXtTIGRsDUSCG4KRUEoPGL4YtSqlCvJzOcxPZ5CdyiA7Mw/LrN+Anwzr6E+FsL4jivUdEaxriyDsj1u3aEMznuwGIiL/OdXtBRrjEbNJbP7B/pM1Q7tKD+oX6MHASUZQ7zRCgaiossTlYhnlfBGF+QLy83kU5nLIZ3KolCp1aT8dMdAZDWBpSwDLkyH0pUPoS4WQDDVPXnv9fz2FTImFf4ia0Pie//vyTjcXaJ6esgHc++plTwJ48sX/fPMP9yYVw7hA1bUzVFVZr6pal6aqaUVTWzRNi6mGFtYNPQAAiqboiqJAVVWo2uFKNrZpwXYcwAGsZ7bbVcomrHIFlbIJs1x59k8xX0I5X0QpX/Ky5n4WQAVwbECZO/yPnClAmbp4RXJrIqghHtSRCOnojBnoiAXQGTMQ0BrzqX4x8nV8lUJEUmlxewEmAA3g3lf1zwLY9syfRfn2LwaOvYJMAxB+5g+AwxNGoWf+eOMNL1913FmoW0dmucLtOEzu/SdqVkG3F+AjFBERURNiAkBERNSEmAAQERE1ISYARERETYgJABERURNiAkBERNSEmAAQERE1IdYBaHJnrGw77v9v2w7Kpo1MoYKpTAGFMgvPkDc0RcGq1jBO7opiZWsIS+JBtEYNhHUVQX1xzyYl00bBtDGVq2A4U8LgdBFPjGWxZ6oIy/FnrYRmvD99qRC2rE5hY3ccnTEDAHAoW8Fjo1nctXsK+2ZKgiNsLEwA6LhUVUEooCEU0NCeCGEyU8DwZB4O5Ok0yF/6UiFcvjqNzf0taPGobHPwmUExGdKxsjWMi/oP//PZoomf753DT3ZPY2im6ElbtdaM98dQVdx4TheuXNMK9UWlwZYlg1iWDOLqdWncsXMaX3l4lAWwPMIEgBZMUYD2ljBCho6B0QyTAFqU1a1hXL+xA2ctTdTtEJJkSMe161vxe+tb8fCBDL7z23EMTMl5gFKz3h9DVfHJy/pwanf0uH9PUxS8Yl2YJDErAAAbmElEQVQrlrYE8YmfDjEJ8AATAFq0eMTA0vYIDkzwKFo6sWhAw5vP6MLWNemXPN3ViwLgnN4EzlqawO27pvDNRw8hJ8nrrGa/P287p/uEg//zndYdw41nd+PLvxqpYVTNgYsAqSpt8TBCAU10GCS5Va1h/NPVq3DVWnGD2/OpCvCKta34wu+txtr2iOhwmv7+9KVC2Lomveifu3JtGsuSrkvhNz0mAFQVRQHa4t4dCkSNZ1NfEp+9aiW64wHRobxEe9TA323tx8v7XB+oVjXeH2DL6lRViY+mKLhi9eITB3ohJgBUtXhEvo6L5HDV2jT+eFMvdBkea4/BUFV8ZNOyqp5A3eL9Oez07ljVP7uxO+5hJM2JCQBVLbDIrUjUHDb1JfHOc5dIMaV9IqoCvPu8JXWdCeD9eU57tPqHiI5ntglS9bgIsMm84SnnFAe4EcClAPr+as7d9X71yydd/fzqv3/ACYQCpXA8/FQ4HvnkL17T/7/uIiKR1rZF8KGXL/XF4HaEqgAfevlSjM2XsbvGK+B5f14oZFT/EBF28bN0GO9gk7hytxO8fofzRQd4HMD7AWwAsPCltzViWxaKuUJwZmx64+jugz888+vbf7f5u+PVzwuSMNGAho9eJPe09rEYqoqPXbQM0RoubOX9IdkwAWgCV+52gikTt0PBuyDxZ+7Aweyh6VOmp0b2Mwnwnzef0YXOmH/XhXTFA3jj6Z01uz7vD8lG2sGAvJOq4J8AXCw6joXKzc6n5vPj94uOgxZudWtYyGI6r125No3+tPe7W3h/SEZMABrcG55yToGCt4uOY7HmRmdPfdn39l4rOg5amOs3dvjqvfaxaIqCN5zm/VMu7w/JiAlAg3tmwZ/vPmcHDkrZwp+LjoNOrD8VwllLE6LD8My5yxJYnvKuyAzvD8nKdwMDLdplogOoVjGXO0l0DHRil69O1a12fT0oAC5f6d10Pe8PyYoJQONbJjqAapULFT5mSE5TFGzqT4oOw3ObVyShKe6Hbd4fkhnrADQ+366mt02LPYzkVrWGkfToyNqH9mdwx+5p7J4sYK5oLupnkyEdq9siuGJNCuf1up9uT4Z19KdDrk/G4/0hmTEBIKKqndzlvpREybTxmV8cwEP7M1VfY7Zo4uHhDB4ezuBlyxP48IXLENTd5Y+ndkddD3C8PyQzvgIgoqqt8GBLmNvB7cUe2JfB5355wPV1+lNh19fg/SGZMQEgoqotTbhbpvHQ/oyng9sR9++bw68OzLu6xtIW90tQeH9IZkwAiKhqrVF3B7LcsWvao0he6s7d7q7dGnb/hpT3h2TGBICIqhbW3dWG3zVZu3fIuybyrn7ei7r3Mt+fnRLcHxKLCQARVc3tidAly/ImkKNY7Er5F/PiuOuAy4V28yV3/w7Hk5Hg/pBY/ASJqGrzZXcDeHe8du+RHZc/78UeVLfXcPvvUMtrc4+u/zEBIKKquX1CPc2DbXLHU6jYQn6WyA+YABBR1TJFdzMAr9rQDkOtXTc0mStX/bPj2YqHkRDJhwkAEVVtYLro6ufbogY+dlFvzcrKPjqaq/pnHxtxt02OSHZMAIioak+PVz/AHnHesgT+7JJl6IoHPIjohe7aPQXLWfzbbstxcOfAjOfxEMmECQARVW2HBwkAAJy9NIEvXrsa779gKda0Rzy5JgDsmynhjp2L3+++7ekpHJh1N7tBJDtWciCiqk3lTeyczGNtm/tBO6Cp2LIqhS2rUhicKeKOXdP4+eAsci53Gnzl4VEsbQnitO6FnYv1+GgWX/vNmKs2ifyAMwBE5Mpdu72fKl+RCuHd5/bgm69d53pWwLQdfOKnQ7j16eO/DrAcBz9+ahKf+OkQLLuWG/CI5MAZACJy5b69s3jbWd0IGd4/TwR1b2YFTNvBl381gtt2TuGK1Wls7I6jM3a4TO+hbAWPjczjzoEZTvtTU2ECQESuFCo2fvz0JF53SkdN2zkyK3DjWV349YF53LFrGo+PZhd1jf2zJXzl4VEAo7UJkshHmAAQkWvffWICl61KI12HA2ICmooL+1pwYV8LDswVcffALO7cNe26KiFRs+EaACJyrVix8Y1H6/9U3dsSwg1nduFmD9YKEDUbzgAQkSfuHpjFqZ1xXLoqWfe2n79WgLMCRAvDGQAi8swXHxrGnqnaHWG7EEdmBb7xunX4k4uWYeMCt/8RNRsmAETkmZLl4G9/vh+TOfF19I+sFfjUln585qoVOHNJXHRIRFJhAkBEnhqbL+Ojd+zByHxJdCjPWt8exScv68PnXrEKa7lOgAgAEwAiqoHxbAUfu30vdk2KfR3wYmvawvjM1hV44+md0FSeaE/NjQkAEdXETKGCj9y+B//1u3HYElXWU1UFv39qBz571UqkwobocIiEYQJARDVj2Q7+47FD+Mgdg9g5mRcdzgusbg3j01f2oyPGJICaExMAIqq5nRN5fHjbHvz5T4Y8O0HQCz3xIP5+68qaHEVMJDsmAERUN4+OzOOjtw/ij24dwB27plGs2KJDQlvUwJ9dvBxBnd0hNRd+44mo7gamCvjCgwfxpu8/hS88eBCD02IXC/alQvjABUuExkBUb6wESETC5Ms27tg1jTt2TWNNewRb16RxUV+LkKfxTX1J/GZ4Hj/bM1v3tolEYAJARFLYNZHHrok8vvrwCDb1JXHV2jRWpMN1jeGtZ3bjoQMZ5MviX00Q1RpfARCRVI7MCrz/loG6rxVIhnVct6G9Lm0RicYZACLyTF8qhC2rU9jYHUfnM9vrDmUreGw0i7t2T2HfzOKqAx5ZK3DTI2O4aEUSW9eksSIVqkXoz7p2fRu+9+SEFAsUiWqJCQARuWaoKm48pwtXrmnFiwvsLUsGsSwZxNXr0rhj5zS+8vAozEUWBsqVLdz29BRue3qq5msFQoaKTX1J3LV72vNrE8mErwCIyBVDVfHJy/rwirUvHfyfT1MUvGJdKz55WR90F2V4d03k8c/3D+NN33saX/zVCAZnilVf61i2rk55fk0i2TABICJX3nZON07tji7475/WHcONZ3e7bvfIrMD7f7wbH7ptD+4amEHZ8mbafk17BOkwJ0ipsTEBIKKq9aVC2Lomveifu3JtGsuSQc/iODIr8O4f7cavD2Q8ueb6zoUnNUR+xASAiKq2ZXXquNP+x6IpCq5YvfjE4UTG5sv41D378IuhOdfXOqmdCQA1NiYARFS107tjVf/sxu64h5E8x3aAz/1iGJO5iqvrrEjXdrcBkWhMAIioam3R6g/RqeUpfBXbxg93TLi6RjKkeRQNkZyYABBR1cJG9V2Im59diN+Nujt1MB7kIkBqbEwAiKhqi9vN/1LVbwY8sZH5xRUderF40P0MgMz3x+213f67eXGNWt6fZsAEgIiqVjbddeG1fMoO6+4G8MUWKzoat/cnEard/Wlxee2SB5USZb4/zYAJABFVrVCxXP382vaIR5G81Jo2dwcJ5cru/t0A9/dnTZu89ydvuk8AZL4/zYAJABFVbSrvbqX9FWtqV3GvmvoEzzdVMF3H0Mj3Z9rlvxv+f3v3HhxXed5x/Hf27K6k1epqW5ZkS1gGYxtVGEwKDuSCHbAChEmaKW2TdtJ2kmkb0mnTlJDSScFuM1OcTDJJZhJoKZ1J47qZ/pEmgzEYE4gNGeyQxjdcjC+S8EW2bOu+klZa7Z7+YZwEsHU7Z/fdc87387/f8+gZyfvbc877vCru/oQBAQDAnJ0acvecfU1Tpd7bXOlRNb9225Iq3dzkbt1Tg+5+Nsmb/tx6VXH25+Sg+xHMxdqfsCAAAJizjj73HwIPvL/Z0//Eb1tSpS/c1uR6nc7+MddreNGfv31fs267qsr1Opd41Z+uWZ7seDnF2J8w4Q0KAHN28GzK9RolUUt/f/tV2nNyWNuP9unIhVENzPL2e3VZVNfOK9OHl8/TzYu9GTC03+U2Qsm7/jx0e3PR9Wdvt/ufrVj6E1YEAABzdrw3rYH0pKo9eBv7lqYK3dKUn+mAs9U/llFnn/s7APRnan7vz/hkTj2pjPaeSem5o71604O7IoXEIwAAc5Z1HO3sdD93v9j8tGNQHuwCDGx/Xjw+6MkcAL/3pyQaUXN1iT66cp6+fe8yffaWRldHXRcaAQCAKzuO9nnyYVAsHEk7jvV5tl7Q+iNJL3UNeLZWUPpjW5buWTFPG+9Y4psQQAAA4EpXf1qvenQEbzHYfWJIJwa8u5UbtP5I0p/d0uDZKOeg9WdVQ1Kf+e0G02XMCAEAgGtb9p/z5Ja5aVnH0X/t6/F83aD055KVC8q14Y4WlXoUAoLWn7uW16q5usR0GdMiAABw7VjvmJ450mu6DNe2vdGrjn73W9PeKSj9+U2tdQn9051LPLkTELT+2Jal9mXuBi0VAgEAgCf+45c96hmeMF3GnJ0ZntD393r/7f8Sv/fncry8ExC0/tzQUBw7NqZCAADgiZGJrDbtOqFMzv2M+EKbyOb06M4TGp3IX+1+7s9UWusS2uhBCAhaf+qSMdMlTIsAAMAzRy6MadPOk8o6/nmgm3Okb7x8Ssd73e9rn44f+zMTXj0OCFJ//PAjEAAAeGr3iSE9vrvbFy915RzpO7tP6+Wuwu1F91N/ZsOrxwFB6c/5EfeHJeUbAQCA55450qevFfnt3Ewup027Tmj7Ee/2/M+UH/ozF611CW1Y534ffBD6s+/MsOkSpkUAAJAXL3UN6oFtHTpThC92nUtl9KVnO/WzAn7zf6eXugb14LYOnS3C/rjxW/XlnuyD93N/so6jZ4/2my5jWgQAAHlzvHdMn996TE8f7i2K57pZx9FThy/oL586oiPnR02Xo6O9Y/rrIuqPV7zaB+/X/jx9uFcnB7zfTuo1AgCAvBqZyOqxPd36/NZj2n1yyMjYV0cXny3/zVPH9C97zuT1bf/ZKob+eM22LLVfO8+TtfzWn31nUnryF2dNlzEjnAYIoCA6+9L6ygtvqrm6RO3LavXBlmpVl+X3v6D+sYx2dgzquWN9no73zQdT/flpx6B2dQ7oMzc3qrUu4dnaNzYkPVtLMtOf2cg6jp4+3Ksnf3FWWZ+8weiPEwswZ598Pb/3zfb86OV8Lq+tf9yW1/X97iPfO2i6hDmzLUsttaVqqy/X1fPKtKiyRPMTUZVF7Vm/SZ7O5DQ2mdWF0UmdGhxXR9+YDpwdUWffmG/fJve6P6OTOfWNZnRyMK3O/rT2dV/sz6X2lMYi2nhHi2chIJ3J6Xe3HPJkrcvxsj9zlc68dRxw97C2H+sv+G3/4w+939VnePHEJwChknUcHesd07EC7L/3o0L3J53J6eEdndrwoSVqqy93vV6+cxe/P+7xDgAAQJI0PpnTxhe6dOic+xck/bAPPuwIAACAX7l0J+Dg2RFX6+ztTnlUEfKFAAAAeJvxyZw2/KRrziHg4j74wg9YwuwQAAAA7+LmccC2N/yxDz7sCAAAgMtKZ3J65PnZPQ7YfyalJ1/1xz74sCMAAACuKJ3J6R92dGrrNNP4Lk1ZfOT5Lk36de9lyLANEAAwpcmco8f3dGvbG71qv3aebmxIauFb592fHc5o39mUnj3Sx21/nyEAAD4WjVh820LBnBgY1xM/7zZdBi5yPdqSRwCAjyVitukSAJjh+ihLAgDgY/UVMdMlADCjw+0CBADAx1pqy0yXAMAER/vdLkEAAHxsVYP7me0A/Mey9BO3axAAAB+7eVGlSqL8GQNh4kgjJeOTz7hdh/85AB8rjUX0gZYq02UAKCDL0pZDG9a6PmyBAAD43H1tC2RHXB0LDsA/JmxHj3qxEAEg+IZNFzBXdsxmg/sMNFaU6GPXzTddBoACsBx948hD73e9A0AiAITBSdMFzFWsNOZ60EVY/OENdVq+IGG6DAB55byi5PAGr1YjAASdox2mS5ir0mT5IdM1+EXcjujLa5s1v5y5AEBAddvZ6H3H/upuz74YEQACzpb+TVLWdB2zZclSsqx0o+k6/KSmLKZHPrRE8xOEACBgTjpW7sNHvnzraS8XJQAE3Pevs16T9LjpOmarqr5m/87fX/qU6Tr8pqWmVN+69xq1LmQ+ABAMzitZe/Lmjr/74EGvVyYAhEAmpy/Ig6ERhZKsqehrnF9zq+k6/KqqNKqvrF+iT6xayIwAwL8mHDn/bJWn1nY9uPZsPi7A3qGQuO+QE49F9HVJn5Xk2Qkye370sldLyZKlqvqa/Y3za2596t7GUUl6vXuAnQAu9I9l9IP95/X88X6NT+ZMlwNgGo40Ykn/aUubvHrb/0oIACHziUNOqxXRpx3pTktaIinpZj23ASASs514aWy8NFl+KFlWuvGdt/0JAN5IZ3J69fSwDpxJ6Xh/WueGJ5SayHKUMGDWhKQBR+q05Oy1rMiLJenMNi+G/MwEASDkXu8eGJcUn+u//+XxC3O+tmVJn3zfNVP+DhIAAPjVysbqov6M5QEhhkxd2I5EuCcNAIYQANBp6sKxSGTU1LUBIOwIANhn6sLxWOSEqWsDQNgRAELOcawXTF07Zmu7qWsDQNgRAELOiY1vlTRS6OtGLEtV9uSmQl8XAHARASDkWuvqUpb0g0JfN1kWPbymbWlPoa8LALiIAADlstYmSZlCXc+SpfJE/C8KdT0AwLsRAKDrmqqOOo6+WajrVSViu9etbNhZqOsBAN6NAABJUtlE1cNytDvv14lHh+dlytvzfR0AwNQIAJAktbRY6Vws+juWdDJf14jZdra6zFq7Zs08Y8OHAAAXEQDwK611ybPK5j4i6ZTXa8fsSLamouT31l1/1f96vTYAYPYIAHibFU21B6KWvVrSLq/WLItHh2srylff2db4Q6/WBAC4QwDAuyxrqDgfHalaL8f5R7mYEWDJUk2i5JVGp2LxHW0LD3hYIgDAJQIALmvZMmt85aKaR3LR6DWO9JhmEQQilqWqRPz1+vmJ2+++qelWnvkDQPEp6qMKUTwOnTuXtDLxeyxLayXdIKlFUvXe471x27ZyUdseLbF1Iha3n6uyJh71asgPxwED8KtiPw64qIsDCAAA/KrYAwCPAAAACCECAAAAIUQAAAAghAgAAACEEAEAAIAQIgAAABBCBAAAAEIoaroAYCpdPUM/7ktNfNR0HXNlWZYilhS1I7IjlkpitspitkrjUZWXRRWzyeAAzCjqIQWAJG3ff/o7vUPp+x0FbyZQWdxWRSKu2mSJEiXkcSBIin0QUFEXB1yy4+DpL/YOjW/K5nKB/Z0tjUc1r6JE8ytLZUcC+2MCoUEAADzy3MGTf9Q/nPneZDYX6PvmdsRSXXWZ6qrKCAKAjxEAAA9tP3DiA0OjkzsmMrm46VryzY5Yaqgt14KqUv5QAR8q9gAQ6G9SCJ7265t3VVYmbiqN26Oma8m3bM7RqQspHT09qPFM1nQ5AAKGAADfab+u/rVkabYlWRo9b7qWQkilMzp8akD9qXHTpQAIEAIAfKl91TXnKhOJpRWJWJfpWgohm3PU2TOsU70jAdwLAcCEon4+AUzHcZzIM3tP/ax/ZHyN6VoKpTZZoqvqkrIs/nyBYsY7AEAeWZaVu3t103trk/Efm66lUPpS4zreMyzH4V4AgLkjACAQ7rqx+WPzK0sfs0JyU2toZEJd51I8DgAwZwQABEb7qsX3L6gufdCORELxudifGld374jpMgD4FAEAgXJn26Kv1VbGPhW1IznTtRRCz8AYuwMAzAkBAIGzvq1pc3UyujYei0yYrqUQTlxIMScAwKwRABBIoRoYlHX05rlh02UA8BkCAAIrTAODUulJ9Q7zKADAzBEAEGhhGhjU3TuibC4U7z8C8AABAIG3trUude/q5qtrykt2m64lnzLZnM4PjJkuA4BPEAAQCr8eGFTyP0GeFNAzOMZdAAAzQgBAqNx1Y9PH51WWfTeoA4OyOUe9Q2nTZQDwAQIAQqd91aLP1VWUPGBHrEB+Vb7Ay4AAZoAAgFC644bFX6+tjAdyYFB6YlJj45OmywBQ5AgACK31bU2bF9SUrYtFIxnTtXitj+mAAKZBAECorVvZsLOqKrE6aAODhkYDl2kAeIwAgNAL4sCgsYlJTWYD93QDgIcIAICCOTAoleY9AABXRgAA3hK0gUHpCQIAgCsjAAC/IUgDg9ITnBAI4MoIAMBlBGFgEEcEA5gKAQC4Ar8PDJpkJDCAKRAAgCn4eWAQZwIAmAoBAJjG+ramzdXJ6Np4LDJhupbZIAAAmAoBAJiB9uubd1VWJm7y08AgxyEAALgyAgAwQ0EcGAQgvAgAwCwEcWAQgHAiAACzFLSBQQDCiQAAzEGQBgYBCCcCAODCxYFBpY/5eWAQgHAiAAAuta9afL+fBwYBCCcCAOABPw8MAhBOBADAI34dGAQgL8ZNFzAdAgDgIT8ODAKQF8OmC5gOAQDwGAODAIgAAIQTA4OA0LtguoDpEACAPGFgEBBejpw3TNcwHQIAkEcMDALCKaIIAQDApYFBZd9lYBAQDjnlDpmuYToEAKBA2lct+hwDg4BQyNmyXzJdxHQIAEABMTAICIX9yxsreQkQwNutb2vavKCmbF08FsmYrgWA9xxHz5uuYSYIAIAB61Y27KysTKxmYBAQPI7jbDFdw0wQAABDGBgEBJHzf62La/aZrmImCACAQQwMAgLnSdMFzBQBADCMgUFAYPRZscknTBcxUwQAoAgwMAjwP8eyvrliwYKiPwPgEgIAUEQYGAT4Vk9JSfbbpouYDQIAUGQYGAT4jyPri1fX1g6armM2CABAEWJgEOAru1Y2VG42XcRsEQCAIrW+rWlzdTK6Nh6LTJiuBcDlWdKAbetPLct/d+wIAEARa7++eVdlZeImBgYBxcmR8+lrF1Z3mK5jLggAQJFrv67+tUUJZ2myNFb0s8WBMLEsfXVlY80PTdcxVwQAwAfWtC3tqUyUtTAwCCgaW5bXVz1kugg3CACAT1waGFSdLPm56VqAUHOcrSMNVX9iWZavX9IlAAA+YllW7p4bm25hYBBghiNn80hj9cffY1m+P82TAAD4EAODgIJzLEtfXdlQ/akgfPhLBADAtxgYBBTMkGXpD1Y0VH/Jj9v9roQAAPgYA4OAvNtlRXTDiobq/zZdiNcIAIDPMTAIyIs+SX++oqHq9hX11Z2mi8kHAgAQAAwMAjzT61jWw/HS3NKVjdX/GqRb/u/EG0RAgOw+2LGwJ22/lkpn5kvS6qvnmy4J8IvXHDn/7kQzT7TW1aVMF1MIBAAgYF48dC45nB47ODyaWUIAAK4oZ0kHco52OI6zpXVxzT7TBRUaAQAIIMdxItv2ntqztL7iPaZrAQyakJSSNCCpT3LesBQ5nFPukC37peWNlYzXBgAAAAAAAAAAAAAAAAAAAAAAAAAAAAAAAAAAAAAAAAAAAAAAAAAAAAAAAAAAAAAAAAAAAAAAAAAAAAAAAAAAAAAAAAAAAACgSP0/2kS9Nzmi+WYAAAAASUVORK5CYII=;" parent="1" vertex="1">
          <mxGeometry x="1071.25" y="362.5" width="57.5" height="57.5" as="geometry" />
        </mxCell>
        <mxCell id="Nd245YbIvRQRNsEbv2v5-78" value="&lt;span&gt;SQL Server&lt;/span&gt;" style="image;aspect=fixed;perimeter=ellipsePerimeter;html=1;align=center;shadow=0;dashed=0;spacingTop=3;image=img/lib/active_directory/sql_server.svg;" parent="1" vertex="1">
          <mxGeometry x="289.5" width="38.5" height="50" as="geometry" />
        </mxCell>
      </root>
    </mxGraphModel>
  </diagram>
</mxfile>
